<?xml version='1.0' encoding='utf-8'?>
<svg xmlns="http://www.w3.org/2000/svg" version="1.1" id="Layer_1" x="0px" y="0px" viewBox="0 0 4898.667 5000" enable-background="new 0 0 4898.667 5000"> <g> <path d="M2623.353,1215.904c-59.319,3.64-114.216,1.054-148.908-56.032c24.915-17.211,54.041-24.983,82.359-31.54 c33.313-7.713,64.781-3.905,75.509,37.847c2.599,10.115,8.125,18.922,20.599,18.517c10.571-0.342,12.335-9.799,16.217-16.923 c24.122-44.272,70.214-61.264,124.127-47.454c34.037,8.718,67.379,28.65,111.665,10.548 c-41.863-22.702-80.915-28.055-120.318-31.71c-100.808-9.352-200.924-12.554-297.942,25.725 c-13.506,5.329-34.086,29.016-45.695-0.266c-9.093-22.935,8.104-37.271,28.547-46.043c23.821-10.221,47.585-20.574,70.57-36.1 c-57.464-14.238-114.139-13.868-171.235-0.586c-90.336,21.015-176.771,50.344-249.709,110.694 c-81.145,67.141,11.879,95.407-74.277,186.714c-48.67,51.578-54.045,86.171-19.105,147.934 c15.901,28.108-4.236,33.318-18.769,40.68c-163.731,82.942-320.423,178.466-480.386,268.12 c-14.88,8.34-36.179,11.427-39.559,34.566c19.157,12.274,32.47-2.351,46.155-9.906c147.554-81.457,296.435-160.714,441.266-246.778 c47.616-28.295,82.926-10.994,118.673,9.606c28.382,16.356,5.621,35.885-10.948,45.319 c-1.492,0.85-339.659,164.913-810.985,376.176c-19.946,8.94-42.974,30.794-59.772-3.004c-14.054-28.275-4.619-50.875,21.233-69.58 c228.957-165.655,542.205-399.086,758.35-583.177c20.864-17.77,29.836-34.701,20.756-60.765 c-31.51-90.457-17.778-137.197,64.282-193.978c124.051-85.835,259.217-139.483,413.67-131.342 c46.578,2.455,89.723,12.87,122.815,48.404c19.016,20.418,42.424,23.342,68.802,23.721 c208.317,2.989,349.29,104.354,434.263,292.936c65.832,146.102,63.517,292.887,13.383,440.408 c-41.882,123.236-178.264,190.497-445.76,484.795c-84.129,92.559-100.573,218.479-32.061,292.737 c30.502,33.059,69.477,58.181,103.695,87.953c97.478,84.812,112.638,144.808,65.896,267.611c-8.107,21.3-5.77,36.287,5.198,55.962 c66.244,118.826-3.201,240.994-139.874,237.771c-47.398-1.118-94.051-31.889-131.611-63.865 c-34.166-29.087-70.674-58.391-90.22-101.193c-11.65-25.514-30.685-26.547-54.44-21.344 c-127.009,27.817-244.236-54.507-273.612-181.592c-25.624-110.849-34.306-219.583,2.318-328.313 c45.176-134.12,117.46-251.134,220.731-349.664c137.633-131.313,261.758-275.409,367.719-433.047 c39.211-58.334,57.938-131.201,66.481-203.493c1.41-11.935-2.163-23.419-17.919-34.113 c-47.138,182.273-51.854,250.029-127.417,164.573c-24.875-28.132-51.78-25.009-81.732-24.388 c-50.583,1.049-61.671-10.833-45.464-59.72c22.666-68.372,52.842-133.805,100.006-189.651 c27.715-32.818,94.358-30.086,124.43,4.812c12.886,14.954,22.187,30.913,44.746,37.69c60.003,18.027,82.098,50.074,85.989,113.591 c6.313,103.041-29.863,191.763-94.107,269.774c-188.812,229.275-265.05,274.544-290.9,460.854 c37.726-40.506,52.873-92.515,78.05-139.095c121.005-223.875,344.894-328.476,337.439-594.576 c-1.781-63.599-35.391-106.888-87.789-135.992c-27.114-15.06-52.625-24.953-57.864-62.365 c-1.776-12.677-14.551-33.709-33.118-41.408c-10.703-4.438-24.091-12.786-32.656-2.022c-9.209,11.571,6.281,14.592,12.62,21.394 c17.616,18.9,1.663,22.552-13.158,22.728c-94.842,1.124-139.334,68.1-170.445,141c-51.224,120.038-48.358,122.149-179.215,122.088 c-16.865-0.008-33.817,0.831-50.572-0.586c-18.452-1.56-42.391,8.346-49.63-20.886c-5.955-24.046-4.278-47.171,12.779-65.868 c44.681-48.977,92.922-91.993,163.089-101.15c58.982-7.698,88.892-49.865,108.895-100.574c4.028-10.213,6.738-25.929-5.287-32.318 c-36.573-19.432-7.42,91.484-176.192,130.198c-28.199,6.469-53.718,17.226-74.821,38.769 c-51.493,52.57-116.201,33.607-176.074,25.83c-27.737-3.603-40.125-38.608-28.293-61.413 c22.172-42.735,28.186-93.555,63.969-129.502c6.703-6.734,9.29-20.675,21.5-16.849c19.605,6.144,9.361,29.835,4.384,64.973 c-2.017,14.234-10.496,33.517,10.773,37.668c23.688,4.623,27.735-15.125,25.801-32.845c-5.204-47.69,16.106-84.969,44.929-119.161 c42.671-50.618,136.323-59.749,192.908-27.257c52.116,29.927,99.527,79.029,169.802,59.929 C2609.446,1235.307,2616.206,1234.979,2623.353,1215.904z M2546.697,2423.562c5.093-11.675,9.751-20.25,12.672-29.381 c23.084-72.163,54.472-140.01,97.378-202.928c153.672-225.354,455.123-405.134,372.179-687.721 c-18.976-64.652-37.261-131.09-91.787-178.259c19.08,75.444,98.072,179.036,59.18,324.402 c-81.929,306.225-356.406,389.826-449.058,717.461C2542.286,2384.73,2533.676,2401.094,2546.697,2423.562z M2328.453,1362.956 c52.988-2.641,97.585-22.576,128.2-67.052c32.971-47.898,11.319-99.672-47.711-110.777c-38.677-7.276-77.265-1.057-111.436,20.51 c-34.919,22.038-65.195,88.323-50.288,118.323C2262.908,1355.532,2297.579,1357.641,2328.453,1362.956z"/> <path d="M2288.125,3512.588c-149.848-0.881-296.529-37.971-436.449-96.196c-105.52-43.91-196.874-114.48-283.52-189.107 c-125.295-107.915-246.726-221.366-326.766-367.663c-77.347-141.373-122.076-294.281-107.365-458.68 c3.124-34.906,13.4-69.182,20.538-103.715c1.713-8.286,3.763-18.249,13.848-18.623c14.437-0.534,13.343,12.036,14.397,21.656 c9.925,90.67,32.232,178.339,71.779,260.397c131.689,273.249,305.708,463.945,608.105,488.621 c102.462,8.36,116.008-14.034,224.522,35.85c87.382,40.169,179.642,41.663,266.64-5.098c32.442-17.438,54.469-16.802,85.406,4.905 c39.792,27.92,80.678,54.436,119.072,84.411c40.532,31.645,50.634,72.82,38.211,121.757 c-15.615,61.528,7.712,174.532-209.172,220.115C2356.046,3517.802,2323.705,3517.449,2288.125,3512.588z"/> <path d="M920.252,1813.129c3.534-463.739,197.531-829.07,476.574-1190.079c158.562-205.139,340.521-386.015,568.115-512.83 c166.307-92.667,345.589-145.159,536.361-83.645c56.522,18.226,120.325,35.817,156.085,94.406 c25.25,41.37,18.055,70.04-22.231,96.814c-54.658,36.325-117.274,41.074-178.744,43.905 c-222.383,10.241-433.199,60.516-622.109,181.281c-85.19,54.459-159.483,125.282-226.436,200.668 c-126.267,142.169-249.884,287.71-339.076,457.092c-91.519,173.801-182.298,348.978-229.496,541.263 C1022.07,1712.177,985.375,1763.178,920.252,1813.129z"/> <path d="M3278.441,3342.107c5.083,59.772,8.662,118.551,4.853,178.178c-12.644,197.905-176.584,274.269-345.3,197.635 c-84.647-38.448-153.58-101.108-226.076-157.73c-16.53-12.911-38.722-30.946-25.397-54.66 c12.674-22.555,40.434-13.334,59.822-8.788c52.241,12.251,102.719,29.406,157.927,29.13 c182.615-0.912,289.598-130.702,252.46-309.553c-2.006-9.66-7.416-18.921,2.629-31.269 c142.602,91.771,205.235,231.753,348.835,210.961c31.594-4.574,55.124-15.997,67.707-44.442 c29.73-67.216,61.23-133.954,85.385-203.198c11.137-31.926-11.156-64.689-25.136-94.589 c-48.27-103.235-127.904-157.95-189.442-204.403c46.81-19.853,81.516,0.555,112.984,18.304 c34.879,19.673,64.054,48.092,85.339,83.909c52.086,87.645,102.169,93.135,176.058,20.126 c79.494-78.547,143.096-171.113,152.957-281.857c8.872-99.638,56.425-183.079,81.902-275.101 c10.522-38.002,12.574-76.143,16.589-114.514c1.337-12.774-2.898-27.7,21.218-39.271c10.073,68.786,8.648,134.927,3.482,200.836 c-5.707,72.805-38.34,136.444-65.872,203.197c-54.822,132.923-78.565,281.558-227.094,419.622 c-51.27,47.653-66.278,70.59-25.618,142.823c82.136,145.913,114.264,300.436,43.788,463.491 c-13.954,32.283-31.52,40.95-65.211,37.39c-196.816-20.793-299.998-183.221-449.153-369.749 C3301.818,3350.758,3295.446,3342.927,3278.441,3342.107z"/> <path d="M2674.514,3584.78c28.22-4.728,40.544,16.397,55.239,30.969c62.53,62.007,130.736,114.624,212.267,150.808 c177.076,78.588,366.538-23.21,370.49-222.189c0.696-35,2.989-69.969,4.73-109.115c48.816,16.46,59.055,61.173,77.253,92.408 c82.62,141.803,208.57,217.902,361.97,257.94c36.97,9.649,90.694-26.086,108.803-76.789 c39.613-110.91,36.553-223.229,6.817-335.827c-13.302-50.373-29.241-99.439-57.662-144.048 c-10.244-16.08-20.929-34.509-15.962-56.732c24.605-0.076,35.127,19.259,41.923,33.317 c44.563,92.178,92.674,183.143,87.424,291.264c-3,61.783,6.827,120.59,34.531,179.917c50.129,107.349,38.727,219.296-7.023,327.039 c-11.796,27.781-40.572,31.938-67.66,30.936c-125.094-4.629-232.297-48.726-315.296-145.192 c-9.883-11.486-22.048-21.257-30.582-33.602c-17.404-25.174-30.815-23.282-41.653,4.152 c-38.173,96.625-111.188,155.345-208.993,179.635c-133.995,33.276-266.493,31.755-366.658-79.609 c-39.261-43.651-88.391-83.027-109.635-142.063c-5.294-14.713-16.049-25.266-30.745-31.664 C2695.179,3747.622,2673.479,3672.824,2674.514,3584.78z"/> <path d="M861.385,1900.143c-91.641-206.698-104.65-419.277-103.698-634.749c0.666-150.769,11.29-300.367,65.138-441.743 c89.603-235.245,255.207-393.845,499.849-462.254c40.103-11.214,86.093-15.428,126.388,12.329 c83.19,57.306,15.213,77.685-112.912,225.193c-213.442,245.736-375.832,519.323-439.971,842.189 C823.142,1808.766,924.695,1834.568,861.385,1900.143z"/> <path d="M4110.023,1402.051c3.437,50.245-27.757,79.141-76.526,70.059c-18.671-3.477-21.602-18.206-25.036-33.412 c-44.689-197.853-123.214-381.451-229.235-554.241c-63.674-103.774-135.835-204.029-229.991-277.189 c-112.936-87.753-244.314-149.859-392.898-161.431c-22.389-1.744-61.063,14.991-64.361-16.917 c-3.504-33.899,29.173-59.208,60.984-71.096c109.075-40.764,217.549-59.627,336.788-30.776 c159.781,38.66,272.58,127.579,369.456,257.507c127.985,171.651,157.48,374.074,208.835,570.852 C4089.185,1236.433,4097.23,1319.638,4110.023,1402.051z"/> <path d="M2592.935,4019.771c73.707-27.316,133.215-63.037,180.737-116.773c14.676-16.596,27.585-19.525,36.838,4.8 c20.094,52.83,64.148,84.121,107.066,115.16c67.748,48.995,12.464,57.761,52.617,112.197 c36.797,49.884,73.835,99.603,111.598,148.757c45.65,59.42,110.722,90.491,177.246,119.187 c10.666,4.601,24.648,7.043,31.015,15.221c59.289,76.154,124.677,144.322,212.361,189.277c28.756,14.743,27.627,50.25,14.23,72.368 c-26.046,43.003-60.13,76.646-115.973,87.672c-213.438,42.141-332.123-94.794-449.982-233.128 c-102.651-120.483-164.767-267.305-253.15-397.186C2669.071,4095.49,2634.896,4058.759,2592.935,4019.771z"/> <path d="M2839.072,4969.146c-85.978-0.245-157.409-38.285-219.742-92.233c-228.646-197.886-339.345-457.334-391.499-748.834 c-10.522-58.811,2.918-86.97,57.625-102.193c27.635-7.69,57.315-60.867,78.796-21.687c32.766,59.76,104.698,15.412,114.051,89.147 c18.87,148.787,79.774,283.146,146.269,415.537c67.076,133.549,154.546,251.787,260.308,357.121 c19.886,19.804,41.268,42.178,30.003,75.178C2908.331,4960.372,2883.46,4968.704,2839.072,4969.146z"/> <path d="M840.661,2939.34c-65.118-48.952-105.587-117.552-159.44-174.416c-85.086-89.844-176.192-172.837-289.818-222.654 c-89.495-39.238-184.497-62.006-283.42-23.723c-60.615,23.458-96.109,7.313-104.056-56.896 c-12.814-103.537,5.304-206.14,60.473-295.084c44.427-71.626,88.157-70.029,176.941-37.624 c122.541,44.726,212.538,135.431,292.055,232.614c104.159,127.298,202.313,260.594,265.41,414.627 C819.826,2827.495,842.719,2879.673,840.661,2939.34z"/> <path d="M1713.319,4248.998c9.429-94.906,13.693-179,51.872-256.632c22.837-46.436,116.28-56.009,150.091-17.716 c31.062,35.18,40.493,72.657,39.62,118.591c-3.226,169.69,54.719,325.829,115.203,480.396 c30.367,77.602,69.501,151.441,117.357,220.477c37.555,54.177,2.402,116.888-65.757,126.822 c-84.263,12.28-137.242-31.121-179.735-94.676c-81.455-121.83-146.675-252.015-193.861-390.774 C1726.417,4371.697,1720.119,4304.694,1713.319,4248.998z"/> <path d="M919.721,4168.803c-2.932-172.351,51.509-317.349,166.264-439.131c17.416-18.483,38.189-32.619,59.35-46.754 c52.614-35.145,100.795-70.159,159.611-4.583c23.298,25.976,62.98,38.223,101.091,41.812c22.534,2.122,30.588,14.492,31.565,37.037 c1.04,24.003-9.9,34.31-31.018,37.255c-112.373,15.669-168.887,99.911-215.745,187.154 c-86.8,161.611-97.614,328.525-16.666,498.615c20.955,44.03,40.893,92.566,16.228,144.908 c-21.378,45.368-50.865,54.538-90.997,24.122c-55.184-41.824-91.092-99.215-116.152-161.367 C941.505,4384.334,913.607,4276.86,919.721,4168.803z"/> <path d="M1454.862,4437.249c-1.985-201.071,31.438-343.94,113.551-474.962c27.889-44.5,78.976-55.209,112.702-90.043 c9.8-10.122,23.198-3.649,30.34,7.058c15.389,23.074,39.231,43.501,25.088,76.84c-50.86,119.896-73.761,244.138-58.413,374.531 c15.897,135.051,48.473,264.122,129.302,376.869c53.343,74.408,43.124,147.436-24.299,159.07 c-46.139,7.961-93.121,2.087-136.832-20.108c-68.966-35.018-105.143-99.029-133.219-164.019 C1473.138,4590.024,1453.013,4491.039,1454.862,4437.249z"/> <path d="M824.962,4414.109c-67.8,1.958-99.243-40.753-127.923-84.378c-95.863-145.821-74.393-296.907-13.66-447.132 c64.304-159.058,165.679-281.392,327.817-350.927c75.611-32.427,133.725-16.206,180.677,48.766 c17.214,23.822-10.113,30.345-20.287,36.728c-72.498,45.48-130.953,105.641-181.456,173.159 c-113.53,151.781-160.367,319.67-115.776,508.14c4.217,17.824,4.166,36.716,5.491,55.155 C882.996,4397.488,867.631,4422.86,824.962,4414.109z"/> <path d="M802.877,2188.721c-14.942,42.962-13.879,102.123-14.217,161.161c-0.048,8.502-0.187,18.502-9.336,21.653 c-12.695,4.373-16.293-8.417-22.546-15.407c-141.002-157.609-204.42-304.547-373.512-592.836 c-94.654-161.381-102.287-330.428-47.871-505.37c9.764-31.388,32.677-51.3,66.485-52.909c24.332-1.158,38.17,16.272,39.705,37.805 c10.376,145.466,68.978,275.947,124.001,407.681c157.997,378.269,162.872,413.569,228.009,486.673 C803.2,2147.951,807.624,2159.951,802.877,2188.721z"/> <path d="M611.141,3202.873c119.537,9.238,261.32,26.604,348.262,119.1c9.842,10.47,16.867,22.402,12.047,36.319 c-13.834,39.938-82.474-39.046-379.764,82.683c-88.35,36.176-156.982,96.67-214.144,170.175 c-68.61,88.228-125.711,85.938-186.397-7.546c-55.401-85.344-46.625-172.184-8.856-257.61 c25.807-58.371,89.631-76.574,142.735-95.645C404.856,3221.681,488.199,3198.195,611.141,3202.873z"/> <path d="M811.69,2118.945c-55.638-65.61-79.19-138.061-107.775-206.284c-48.977-116.894-94.575-235.641-133.339-356.262 c-44.901-139.71-111.624-276.616-91.56-429.514c13.797-105.143,51.882-201.45,138.171-270.329 c20.07-16.021,45.39-31.834,74.075-15.665c28.402,16.009,28.224,43.448,25.508,70.92c-16.584,167.765-31.683,335.895-10.34,504.034 c23.004,181.218,48.901,362.417,138.138,526.444c7.844,14.419,11.235,27.048,6.408,42.829 C838.355,2026.372,826.603,2067.893,811.69,2118.945z"/> <path d="M906.63,3392.802c46.745,1.494,93.108-7.404,126.594,43.95c20.081,30.796,21.129,41.729-12.5,54.162 c-115.476,42.692-217.208,105.838-300.323,198.314c-95.37,106.11-158.067,225.164-154.566,371.669 c0.714,29.829-6.715,55.177-34.396,66.252c-27.34,10.939-42.515-13.413-58.234-30.438 c-130.505-141.35-137.239-375.613,3.85-513.474C598.062,3464.998,735.947,3394.074,906.63,3392.802z"/> <path d="M588.243,3167.574c-129.088,0.382-241.559,23.696-350.617,66.371c-58.629,22.942-120.558,10.401-146.647-26.251 c-39.555-55.57-37.951-145.835-0.841-193.432c49.725-63.776,118.515-82.276,193.512-91.158 c167.297-19.813,323.611,15.442,471.327,92.966c78.558,41.229,131.276,107.301,170.326,185.474 c4.915,9.838,7.506,20.292-0.744,27.542c-10.898,9.576-22.403,0.097-32.586-4.302 C791.151,3181.236,683.852,3174.295,588.243,3167.574z"/> <path d="M2513.843,4031.222c69.232,67.987,151.464,116.653,200.935,206.086c113.877,205.868,245.857,400.169,433.743,548.743 c29.317,23.182,33.991,55.466,25.461,86.774c-8.948,32.843-39.498,42.744-71.479,46.149 c-74.033,7.886-129.925-30.863-180.114-75.699c-154.099-137.666-260.251-308.518-340.861-497.574 C2538.75,4245.373,2525.594,4139.914,2513.843,4031.222z"/> <path d="M2003.984,4091.134c-5.982-33.73,7.126-46.836,41.235-54.993c44.924-10.743,87.219-35.51,122.813,17.109 c7.652,11.311,15.008,20.677,16.815,34.994c21.238,168.248,73.702,327.112,146.318,479.698 c42.596,89.504,89.646,175.839,159.813,248.163c37.014,38.154,37.098,78.552,7.929,107.002 c-34.375,33.529-68.072,32.765-111.965-0.081c-103.716-77.612-169.796-184.068-226.188-297.129 C2035.662,4375.103,2023.364,4212.51,2003.984,4091.134z"/> <path d="M1204.737,4323.92c1.647-162.605,22.002-302.318,100.087-428.767c18.21-29.489,35.753-51.47,74.457-47.52 c33.137,3.383,60.94-16.284,90.697-26.882c29.486-10.501,105.401,7.128,123.489,29.592c12.444,15.453,0.898,24.003-8.917,33.515 c-188.214,182.409-218.091,409.698-183.955,654.366c5.07,36.337,3.655,74.372,19.982,108.615 c11.794,24.736,9.841,48.527-13.487,61.984c-21.329,12.304-45.593,8.595-64.885-10.516 c-53.386-52.886-95.307-113.482-111.041-187.574C1216.883,4443.481,1200.02,4375.995,1204.737,4323.92z"/> <path d="M3403.734,2804.646c380.533-136.807,577.606-407.732,614.259-806.211c31.829,14.393,39.537,31.521,40.236,48.954 c14.822,370.191-102.086,475.378-110.023,555.976c-11.107,112.739-52.136,214.432-116.108,308.18 c-22.171,32.49-54.136,50.456-83.876,70.848c-29.763,20.407-48.201-7.788-65.534-28.557 C3557.341,2803.636,3509.187,2816.44,3403.734,2804.646z"/> <path d="M325.897,2851.783c-65.681-2.331-125.519,20.923-185.154,43.368c-69.155,26.028-102.734,6.099-108.392-67.04 c-10.813-139.785,42.222-228.077,155.419-258.464c38.111-10.231,76.789-10.332,114.542-0.288 c122.253,32.527,222.71,103.671,317.114,184.104c68.093,58.015,123.737,127.812,177.938,198.534 c9.687,12.64,29.763,28.317,18.121,42.695c-13.236,16.347-30.151-3.011-43.074-11.434 c-114.65-74.725-240.863-116.143-376.137-131.112C373.087,2849.579,349.37,2851.783,325.897,2851.783z"/> <path d="M763.539,2640.863c-170.745-248.302-296.751-470.149-547.641-589.824c-76.936-36.699-124.35-154.321-100.506-233.67 c14.819-49.317,76.027-71.035,129.099-44.904c85.669,42.18,148.517,109.951,198.721,188.505 c110.951,173.605,221.585,347.337,350.405,508.493C832.45,2518.041,776.681,2545.996,763.539,2640.863z"/> <path d="M3009.62,4069.941c282.868,103.483,466.331,15.928,524.59-194.921c21.418,49.607,42.449,88.101,54.883,129.196 c27.558,91.08,34.555,184.039,12.65,278.018c-14.371,61.654-59.419,98.379-114.338,107.672 c-199.304,33.724-417.851-114.457-470.483-284.882C3014.064,4095.773,3012.906,4085.999,3009.62,4069.941z"/> <path d="M4276.824,1179.292c-4.673,142.229-2.53,142.589-28.813,478.39c-1.159,14.809-1.023,34.169-23.176,30.946 c-20.575-2.994-18.909-22.149-16.024-36.522c10.479-52.213,2.6-102.931-5.361-154.681c-5.68-36.917-38.97-55.463-45.687-93.017 c-37.881-211.797-55.2-522.918-155.5-688.243c-16.152-26.623-16.762-52.757,2.104-74.899c18.619-21.853,42.958-9.689,65.231-1.033 c84.572,32.865,149.163,95.394,182.179,180.083C4295.217,931.742,4281.413,1039.629,4276.824,1179.292z"/> <path d="M3652.145,4245.984c59.725,94.573,160.41,102.729,252.936,130.477c53.041,15.907,90.335-6.644,121.497-38.01 c35.063-35.293,63.342-78.605,74.649-129.007c6.291-28.045,14.724-42.743,47.486-29.564c30.792,12.385,62.217,5.637,93.623-5.192 c11.832-4.079,30.179-15.126,41.517-0.055c9.304,12.368-3.854,24.78-8.564,36.806c-23.543,60.109-73.422,91.85-130.696,107.493 c-49.618,13.553-78.522,34.708-96.3,86.752c-38.371,112.334-138.522,142.137-244.218,160.724 c38.178-40.928,70.983-84.525,88.664-142.153c-67.822,74.463-140.885,144.101-245.17,148.961 c-107.583,5.014-192.29-49.839-270.539-135.957C3537.352,4469.942,3646.364,4433.548,3652.145,4245.984z"/> <path d="M4581.71,2869.057c72.382-5.35,129.279,34.369,186.12,68.612c54.917,33.083,42.549,141.243,24.352,208.141 c-12.26,45.07-34.778,52.904-79.944,33.927c-90.045-37.833-136.18-104.357-373.707-17.475 c-26.586,9.724-53.733,18.906-81.403,24.43c-34.6,6.906-46.803-18.449-32.762-41.508c76-124.814,168.814-232.275,317.197-273.815 C4554.172,2867.84,4568.292,2869.701,4581.71,2869.057z"/> <path d="M3420.765,2971.982c9.839-46.41-38.683-89.476-11.08-103.198c7.487-3.722,21.971-2.628,28.531,2.458 c77.544,60.118,151.652,123.58,180.93,222.806c16.365,55.465-46.181,182.316-68.709,231.761 c-25.397,55.74-100.75,58.171-146.232,15.865c-57.943-53.897-114.821-108.948-171.676-164c-7.721-7.477-23.258-12.868-17.481-27.23 c5.532-13.754,20.851-6.453,31.464-9.668C3314.804,3120.085,3429.91,3111.483,3420.765,2971.982z"/> <path d="M4325.652,3318.293c-38.372-6.428-82.012,13.084-127.511,11.411c-17.338-0.637-35.856-0.209-40.077-21.666 c-3.83-19.472,9.543-29.065,25.424-38.478c85.846-50.888,179.002-84.019,275.144-106.331 c74.24-17.229,233.106,35.726,268.204,138.483c26.233,76.805,17.748,157.241-27.793,227.225 c-26.831,41.232-55.521,35.48-72.8-9.161C4567.664,3368.444,4492.321,3316.636,4325.652,3318.293z"/> <path d="M1602.818,704.66c59.861-56.747,111.483-123.347,185.828-163.424c129.276-69.689,267.278-71.326,407.004-40.342 c32.894,7.294,61.091,28.004,85.836,51.294c25.607,24.103,44.821,52.885,30.316,89.102c-15.425,38.515-47.64,53.396-88.865,52.223 c-44.338-1.261-87.052-13.326-127.365-27.634c-179.656-63.765-339.314-0.848-482.298,51.965 C1609.789,713.45,1606.303,709.055,1602.818,704.66z"/> <path d="M4115.566,3483.148c143.285,26.447,277.786,64.696,340.861,217.718c22.063,53.527,24.988,107.537,16.453,162.945 c-7.399,48.025-113.424,112.803-129.796,39.96c-36.149-160.839-131.982-266.542-291.832-312.058 c-29.59-8.425-61.973-16.253-61.758-55.27c0.232-42.066,39.731-40.378,65.958-49.546 C4073.696,3480.518,4095.405,3484.046,4115.566,3483.148z"/> <path d="M4444.133,2628.269c10.465-172.906,131.624-293.227,306.124-306.117c48.069-3.55,84.304,14.324,108.802,56.901 c26.638,46.297,39.77,96.09,37.624,148.841c-2.13,52.358-39.926,75.378-85.738,52.498c-63.199-31.563-128.493-28.572-190.602-5.618 c-45.82,16.934-92.96,36.823-128.588,74.302c-10.213,10.744-23.811,24.128-38.88,17.599 C4435.896,2659.317,4444.939,2640.317,4444.133,2628.269z"/> <path d="M4380.104,2905.315c-41.268-69.514,15.082-110.177,47.035-150.538c62.541-78.997,149.733-124.504,249.517-138.938 c66.726-9.652,127.023,9.801,170.651,65.349c43.167,54.962,51.281,115.371,24.664,180.137 c-16.885,41.085-55.505,53.878-82.712,22.608c-69.698-80.105-156.064-70.465-245.326-52.542 C4483.97,2843.431,4434.219,2879.055,4380.104,2905.315z"/> <path d="M2973.622,2999.365c54.291,6.012,89.768-17.226,123.466-41.522c62.925-45.368,76.977-105.502,44.662-177.196 c-9.877-21.913-33.61-51.159-17.387-66.326c19.612-18.334,43.181,13.915,65.159,22.97c60.91,25.098,115.963,57.844,154.625,115.466 c26.362,39.289,40.092,81.258,44.401,126.244c6.51,67.955-30.793,108.698-116.446,125.239 c-106.463,20.559-195.929-25.114-281.901-79.81C2985.286,3021.304,2983.056,3013.959,2973.622,2999.365z"/> <path d="M4302.806,4015.844c-11.646,78.008-7.798,135.517-102.527,135.34c-49.38-0.093-80.631-24.344-89.869-70.899 c-12.313-62.048-18.733-125.24-29.35-187.657c-12.162-71.498-42.385-137.608-65.505-205.739 c-10.76-31.708,1.124-37.926,28.226-41.155c60.801-7.242,101.057,31.912,132.448,70.298 C4246.68,3802.182,4302.375,3897.765,4302.806,4015.844z"/> <path d="M4281.56,3342.545c211.64-14.121,325.659,180.847,295.073,332.426c-4.616,22.875-1.451,47.267-5.469,70.333 c-5.682,32.611-51.128,42.898-56.002,2.543c-18.951-156.925-135.629-220.679-263.283-269.977 c-44.423-17.156-93.506-25.566-142.548-26.803c-14.171-0.357-33.076,5.569-38.512-14.404c-5.135-18.867,8.02-32.505,21.53-42.563 c49.009-36.486,108.184-41.731,165.736-51.322C4267.912,3341.139,4278.247,3342.545,4281.56,3342.545z"/> <path d="M2707.267,3230.01c99.381,1.814,174.269-73.193,178.661-174.34c0.899-20.726-11.969-51.197,10.092-60.198 c21.784-8.888,34.731,21.427,47.647,36.426c69.569,80.794,114.084,167.627,71.074,279.431 c-30.621,79.597-122.999,122.464-205.074,91.566c-59.864-22.535-99.036-66.03-133.808-116.125 c-10.062-14.495-18.456-30.717-10.906-46.941C2674.145,3220.075,2694.378,3231.94,2707.267,3230.01z"/> <path d="M4756.459,2097.568c74.201,0.113,157.636,109.55,139.761,178.603c-7.593,29.332-31.473,41.575-53.527,29.414 c-143.191-78.962-240.567,13.401-343.29,87.765c-2.711,1.963-4.741,5-7.614,6.583c-14.732,8.118-23.307,35.208-45.142,20.722 c-19.762-13.112-13.626-35.784-9.191-55.454c30.137-133.642,118.346-212.675,243.776-254.059 C4705.837,2103.024,4731.904,2091.885,4756.459,2097.568z"/> <path d="M4594.567,1427.023c2.123,97.456-44.787,163.212-174.758,484.761c-17.562,43.448-46.702,64.753-93.066,70.245 c-29.024,3.438-28.398-8.384-22.322-27.769c59.955-191.285,119.332-382.759,181.068-573.469 c20.879-64.495,112.601-74.24,109.16,15.946C4594.264,1406.819,4594.587,1416.927,4594.567,1427.023z"/> <path d="M1761.325,3413.127c-53.399,11.911-93.916,19.849-133.845,30.078c-90.495,23.183-146.975,83.073-175.627,169.851 c-20.731,62.786-57.855,79.382-113.576,42.118c-92.176-61.644-96.235-178.18-11.552-228.725 c116.011-69.243,232.997-59.759,354.568-36.178C1703.844,3394.646,1725.662,3402.806,1761.325,3413.127z"/> <path d="M2026.278,3525.542c-27.466,25.815-43.691,42.155-61.049,57.188c-73.836,63.951-87.503,146.324-74.324,237.509 c4.712,32.604,6.086,70.253-29.321,82.721c-39.672,13.971-84.128,2.551-110.274-30.61 c-42.026-53.304-69.343-114.329-51.161-186.068c22.875-90.252,78.63-147.337,171.587-159.682 C1917.636,3520.504,1965.014,3525.542,2026.278,3525.542z"/> <path d="M4450.718,1127.16c-13.583,116.43-24.904,232.794-57.311,347.076c-23.17,81.714-33.721,167.287-60.312,248.667 c-7.063,21.616-13.303,59.073-32.105,55.853c-29.814-5.106-18.335-41.894-18.795-65.346 c-2.424-123.587,21.97-244.363,41.813-365.494c19.141-116.842,0.022-240.6,16.367-295.631c4.797-16.146,3.165-34.506,25.94-37.24 c21.06-2.528,41.901-0.606,54.44,18.255C4439.393,1061.332,4457.635,1090.353,4450.718,1127.16z"/> <path d="M1880.183,452.718c103.464-61.355,208.64-107.694,326.037-115.313c76.451-4.961,153.979-8.823,227.16,27.385 c41.103,20.337,63.928,47.221,56.358,93.732c-7.531,46.27-43.42,46.336-80.081,50.665c-78.599,9.282-146.471-31.543-220.67-42.998 c-91.882-14.184-182.609-17.542-274.237-3.349C1905.358,464.295,1895.287,468.511,1880.183,452.718z"/> <path d="M2356.566,3549.404c-56.18,105.012-111.429,203.78-61.346,306.578c17.729,36.389,22.67,73.811-13.363,99.136 c-90.818,63.831-226.993-55.098-165.471-249.481C2140.691,3628.848,2271.047,3543.17,2356.566,3549.404z"/> <path d="M4412.821,2098.996c-11.335-36.313-19.289-67.085-4.403-94.177c69.414-126.333,120.872-262.035,199.152-383.575 c39.688-61.622,98.33-57.409,132.101,7.29c42.555,81.525,14.673,140.827-71.402,175.027 c-44.901,17.841-73.769,62.223-103.399,100.717C4516.064,1967.684,4471.972,2034.845,4412.821,2098.996z"/> <path d="M1236.275,2951.777c-98.99-41.635-194.968-56.729-286.749-85.134c-71.78-22.215-109.521-84.812-122.994-158.906 c-5.256-28.902-6.998-58.759,24.686-75.353c29.827-15.621,61.34-17.839,91.555-0.983 C1023.324,2676.334,1201.121,2854.063,1236.275,2951.777z"/> <path d="M1602.195,3336.53c-70.731,5.148-127.114,10.287-183.613,13.128c-90.531,4.553-153.019,49.671-185.153,135.902 c-20.516,55.057-45.278,61.847-87.212,21c-104.944-102.223-54.72-180.519,69.887-239.027 c74.617-35.036,155.993-15.71,232.544,1.192C1498.28,3279.683,1546.478,3301.051,1602.195,3336.53z"/> <path d="M3392.149,832.66c-57.74,10.676-122.506,0.433-185.122,17.107c-11.382,3.031-27.365,12.633-35.323-5.337 c-4.971-11.225,2.304-21.042,7.886-32.087c46.19-91.405,188.538-132.38,296.48-102.281 c103.548,28.874,197.455,74.205,253.422,173.529c7.112,12.622,24.035,26.681,13.325,39.948 c-12.379,15.333-26.292-1.756-38.755-8.615C3608.61,862.391,3506.815,833.559,3392.149,832.66z"/> <path d="M2521.838,3739.518c4.295-78.449,36.247-147.724,74.589-214.615c4.524-7.892,9.687-20.416,21.929-17.398 c11.643,2.869,10.462,15.388,12.914,25.068c13.522,53.388,3.391,110.909,31.187,162.138c18.459,34.02,32.707,70.227,67.798,91.526 c51.047,30.984,8.186,150.487-72.174,170.074c-43.08,10.5-96.111-35.418-112.069-83.353 C2531.91,3830.596,2517.396,3786.509,2521.838,3739.518z"/> <path d="M3906.725,4752.815c17.242,132.705-118.136,255.514-239.375,246.741c-11.415-0.826-26.233,3.513-31.622-9.554 c-7.004-16.984,12.465-16.325,20.14-22.956c92.407-79.842,94.726-187.63,85.248-295.006c-4.427-50.152,6.88-66.248,54.524-58.702 c3.311,0.525,7.782,2.547,9.787,1.137c22.679-15.962,51.609-28.409,72.564-11.342c26.858,21.873,25.251,60.357,28.454,93.588 C3908.05,4713.38,3906.725,4730.322,3906.725,4752.815z"/> <path d="M1884.96,3484.281c-55.819,15.567-103.894,30.592-144.654,60.763c-174.088,128.863-24.571,229.334-102.767,259.195 c-31.272,11.942-61.592,5.114-87.364-19.269c-114.233-108.077-47.682-239.339,52.937-289.923 c78.196-39.31,162.739-36.82,247.159-29.296c6.471,0.576,12.874,3.811,18.914,6.649 C1873.07,3474.225,1876.233,3477.588,1884.96,3484.281z"/> <path d="M2140.781,3545.694c8.421,0,16.92-0.719,25.245,0.178c11.028,1.187,25.954-3.078,29.845,12.063 c3.207,12.478-10.378,15.694-17.755,21.615c-69.603,55.871-105.792,127.475-108.779,217.462 c-1.434,43.193,9.529,83.226,19.74,123.798c5.787,22.993-2.057,42.79-19.23,52.773c-72.078,41.894-176.052-130.317-117.099-297.791 C1980.925,3595.75,2051.847,3544.236,2140.781,3545.694z"/> <path d="M3526.049,679.456c-89.174-6.164-164.974-13.288-242.172-3.976c-82.669,9.971-162.234,24.824-236.058,63.439 c-39.667,20.748-44.076-0.98-39.714-31.288c23.468-163.037,274.372-221.682,401.633-123.429 C3445.436,611.763,3485.747,633.469,3526.049,679.456z"/> <path d="M4714.266,1884.432c42.404,0.487,109.389,46.406,120.973,79.084c11.98,33.797-12.065,81.155-46.294,80.059 c-125.627-4.022-211.34,72.286-301.325,142.001c-18.268,14.152-36.623,50.579-58.147,33.385 c-21.488-17.165,0.633-47.271,13.402-71.657c47.361-90.446,116.975-162.192,189.717-231.206 C4655.876,1894.007,4685.325,1879.728,4714.266,1884.432z"/> <path d="M2319.747,3776.473c4.015-117.24,64.317-184.408,145.802-235.402c17.662-11.053,36.787-43.398,58.307-25.292 c18.435,15.508-8.157,38.963-15.281,58.356c-20.867,56.806-43.079,112.361-43.053,174.956c0.022,56.097,0.754,111,26.504,162.453 c8.705,17.395,14.478,36.986-1.956,51.069c-15.72,13.47-35.687,15.625-56.519,5.96c-17.138-7.951-33.574-16.929-45.293-31.21 C2346.601,3886.602,2332.209,3824.758,2319.747,3776.473z"/> <path d="M1514.56,3255.825c-53.268-4.566-102.748-25.023-156.354-29.525c-94.756-7.959-182.845-5.053-258.424,65.108 c-36.109,33.519-76.308,24.063-98.278-13.426c-59.686-101.85-9.821-186.571,142.781-169.464 C1280.96,3123.839,1401.217,3180.845,1514.56,3255.825z"/> <path d="M2999.853,2964.813c-20.326-4.432-44.765-9.202-68.902-15.189c-22.461-5.572-51.839-3.971-64.615-22.376 c-17.849-25.713,17.467-38.586,25.832-58.943c22.093-53.762,8.508-101.078-22.291-146.568 c-7.053-10.417-22.476-21.368-12.741-34.944c9.347-13.035,25.007-2.486,37.369-0.222c50.899,9.319,101.355,19.03,146.36,48.139 c33.692,21.792,58.93,50.034,75.594,85.235C3149.428,2889.59,3105.052,2954.719,2999.853,2964.813z"/> <path d="M3493.784,4898.36c-33.707,6.776-56.429-12.722-72.485-36.12c-15.824-23.058-20.666-50.77,11.951-67.913 c70.052-36.816,126.997-84.521,142.086-167.739c1.645-9.075,6.222-14.845,15.09-17.945c51.621-18.045,120.285,28.333,124.72,84.411 c6.035,76.287-46.451,153.092-130.479,182.756C3555.503,4886.107,3527.349,4905.657,3493.784,4898.36z"/> <path d="M2895.715,3491.806c-81.518,13.791-156.396-37.544-240.068-45.158c-41.28-3.757-58.595-104.139-26.872-134.967 c19.898-19.335,28.198,4.979,32.704,14.004c28.532,57.146,75.695,88.578,135.538,103.079 c143.126,34.682,247.316-37.125,270.566-188.692c3.285-21.414-0.025-43.787,0.499-65.697c0.265-11.046-5.011-26.918,10.409-30.041 c14.609-2.957,18.366,13.323,22.471,23.151c28.345,67.87,33.382,140.111,0.101,204.022 C3062.521,3445.522,3011.866,3507.455,2895.715,3491.806z"/> <path d="M4148.344,4862.814c3.819,24.162-15.245,39.986-35.26,51.928c-21.57,12.87-36.816-3.495-52.546-17.403 c-61.64-54.503-66.418-118.803-145.392-284.625c-20.589-43.234,17.585-48.232,37.576-62.671 c18.688-13.499,39.959-24.31,57.969,8.56c13.335,24.339,34,45.962,59.722,60.252c36.953,20.525-6.565,16.016,76.11,219.537 C4148.929,4844.313,4147.641,4851.734,4148.344,4862.814z"/> <path d="M1095.181,2379.897c-31.2-51.517-63.243-101.212-74.692-160.982c-24.269-126.694-133.174-318.247,32.505-450.349 c31.523-25.135,57.737-11.958,60.28,28.713c0.921,14.723-0.409,30.637-5.131,44.503c-56.972,167.318-60.192,335.048-6.119,503.613 C1105.55,2356.38,1109.516,2367.713,1095.181,2379.897z"/> <path d="M4072.301,2704.843c20.288-70.184,42.395-135.051,94.789-183.452c42.28-39.058,102.72-52.163,153.616-30.308 c51.37,22.058,75.82,65.663,72.879,130.654c-0.76,16.785-0.434,33.967-4.033,50.208c-8.89,40.108-38.556,48.386-68.417,20.239 c-71.071-66.991-120.588-70.433-202.974-14.741C4103.431,2687.399,4087.615,2695.75,4072.301,2704.843z"/> <path d="M4160.318,1613.906c-3.178,112.649-30.684,222.15-61.753,382.353c-1.598,8.24-1.385,18.395-11.795,19.697 c-10.168,1.271-14.285-7.797-15.635-15.994c-21.616-131.197-102.533-505.449,34.119-489.803 c44.967,5.148,50.774,42.446,54.924,78.482C4161.135,1596.957,4160.318,1605.478,4160.318,1613.906z"/> <path d="M1135.197,2722.465c-77.57-72.063-169.025-118.817-248.924-181.58c-60.577-47.585-46.236-118.832-43.58-183.119 c1.192-28.855,30.046-20.789,48.737-16.479c44.679,10.303,68.457,48.113,93.642,80.461 c58.873,75.615,106.152,158.833,145.556,246.256C1137.243,2682.681,1143.953,2698.745,1135.197,2722.465z"/> <path d="M3998.148,2874.495c59.736-66.881,86.414-167.076,189.811-189.877c68.454-15.095,101.629,8.729,131.226,72.48 c23.968,51.626,14.421,101.77-2.432,151.904c-4.951,14.728-16.049,25.746-33.313,27.288c-15.583,1.393-19.552-10.472-23.872-21.442 c-37.359-94.875-124.847-93.496-201.826-54.261c-16.123,8.218-31.561,17.78-47.314,26.723 C4006.334,2883.038,4002.241,2878.766,3998.148,2874.495z"/> <path d="M4303.323,2249.297c63.646,0,106.63,56.706,101.112,129.629c-5.443,71.923-18.562,83.187-86.033,70.298 c-45.331-8.66-86.349,3.534-126.43,22.26c-16.339,7.633-33.379,27.519-49.787,16.667c-21.845-14.448-0.1-36.613,2.424-54.722 c7.101-50.927,31.961-95.318,61.688-136.331C4230.382,2263.869,4263.351,2245.303,4303.323,2249.297z"/> <path d="M1387.072,316.684c148.053-110.209,309.047-188.276,501.973-214.246c-35.036,52.688-85.356,75.318-126.589,107.201 c-38.581,29.833-79.923,56.722-113.638,91.808c-25.959,27.014-53.807,39.842-89.505,31.823 C1503.154,320.653,1445.971,325.065,1387.072,316.684z"/> <path d="M4072.231,4083.78c13.77,84.826-24.908,183.632-90.092,217.565c-58.213,30.306-157.934,25.695-225.482-32.462 c-78.623-67.694-106.32-107.314-110.006-168.449c19.671,4.533,28.956,21.113,42.452,31.218 c68.657,51.408,139.479,93.789,231.602,82.65c61.542-7.441,91.967-49.167,121.427-94.78 C4049.923,4107.46,4050.388,4089.793,4072.231,4083.78z"/> <path d="M4138.942,3182.074c4.951,57.476-9.974,105.392-50.651,143.922c-9.824,9.305-20.796,22.496-34.049,17.793 c-41.953-14.887-6.315-97.042-68.7-171.5c-54.541-65.096-101.25-47.144-107.404-67.272c-4.116-13.462,9.589-15.001,16.992-20.533 c67.71-50.603,133.378-55.971,190.103-18.872C4129.375,3094.483,4150.715,3131.679,4138.942,3182.074z"/> <path d="M3905.827,3022.71c67.592-56.204,113.01-124.933,199.919-138.978c38.617-6.24,79.838-20.192,107.474,15.088 c33.325,42.542,40.813,94.73,26.853,147.802c-4.178,15.884-12.815,30.845-20.897,45.403c-17.818,32.094-45.147,27.385-58.271,2.371 c-49.268-93.908-128.503-86.443-212.281-70.002C3928.123,3028.419,3922.083,3025.444,3905.827,3022.71z"/> <path d="M1362.544,3113.206c-121.238-28.872-238.487-59.976-363.504-42.237c-57.145,8.109-99.931-56.284-80.254-109.863 c5.479-14.919,17.24-18.503,30.653-22.451c42.4-12.478,82.906-3.291,123.592,8.244 C1183.678,2978.267,1285.056,3025.615,1362.544,3113.206z"/> <path d="M4279.707,4656.631c-105.67-8.947-189.707-53.089-261.476-123.148c-8.332-8.134-13.168-21.605-4.451-25.928 c23.108-11.457,29.678-52.949,62.646-41.516c60.757,21.073,133.762,4.322,182.06,66.933 c26.067,33.792,75.226,33.111,114.239,47.413c9.744,3.572,26.087,3.989,25.62,19.574c-0.331,11.041-12.742,14.067-21.047,19.593 C4346.237,4640.219,4314.091,4657.361,4279.707,4656.631z"/> <path d="M4134.796,2191.507c-24.698-133.608-9.06-261.626,36.692-385.784c11.439-31.042,35.136-53.035,70.523-40.139 c35.6,12.974,41.973,45.097,37.356,79.613c-8.447,63.144-47.04,114.172-69.7,171.634 C4186.438,2075.737,4159.891,2133.336,4134.796,2191.507z"/> <path d="M3632.56,3994.833c78.926,28.839,136.771,83.116,211.085,105.753c69.343,21.122,100.828,10.841,137.027-53.212 c52.664-93.182,12.105-148.78,46.637-146.417c19.566,1.339,12.966,23.975,12.15,38.057c-2.419,41.681,5.516,83.836-11.346,124.837 c-56.629,137.701-139.454,151.093-255.136,85.013C3736.953,4128.288,3660.693,4042.888,3632.56,3994.833z"/> <path d="M4264.586,4452.831c-42.787,4.572-85.622-4.828-128.738-10.199c-19.791-2.466-50.193,3.602-50.74-25.269 c-0.557-29.461,9.356-62.068,45.609-69.315c126.382-25.264,109.5,27.925,286.471,26.492c15.717-0.128,38.136-5.64,41.563,16.958 c3.505,23.116-13.082,34.705-35.058,41.413C4372.033,4448.68,4319.846,4457.986,4264.586,4452.831z"/> <path d="M4554.247,4077.765c-4.326,101.367-87.514,210.03-221.823,232.072c-22.833,3.747-54.4,26.695-69.163,1.285 c-10.243-17.631,20.767-37.305,33.646-55.885c2.836-4.093,4.898-8.713,7.579-12.925c47.929-75.31,62.396-84.075,151.915-105.164 C4492.072,4128.745,4518.157,4100.617,4554.247,4077.765z"/> <path d="M2091.787,2772.63c46.722,127.453,66.09,277.724,256.066,269.693c-74.603,83.432-224.653,53.638-270.802-43.859 C2049.927,2941.16,2055.594,2837.312,2091.787,2772.63z"/> <path d="M4145.76,2315.948c-3.936-58.638,28.5-103.756,44.917-153.803c11.392-34.73,24.199-68.865,53.618-94.976 c35.747-31.729,82.455-38.677,107.521-11.48c24.828,26.939,22.689,85.38-12.235,108.638 C4271.417,2209.721,4207.645,2259.881,4145.76,2315.948z"/> <path d="M876.194,2141.941c11.578-28.189-11.093-72.28,27.34-78.837c30.717-5.24,39.791,35.241,47.862,61.092 c93.574,299.711,149.382,325.786,132.294,345.197c-7.741,8.793-15.777,3.17-21.106-3.593 C984.531,2366.756,891.897,2275.866,876.194,2141.941z"/> <path d="M3824.386,3138.47c55.535-9.692,131.887,37.427,164.525,99.368c29.657,56.286,28.128,116.237,17.511,176.396 c-3.234,18.329-14.088,36.609-35.835,35.469c-19.197-1.006-19.195-20.463-21.934-34.891 C3929.387,3313.331,3886.48,3222.205,3824.386,3138.47z"/> <path d="M4452.927,3973.061c-1.96,46.069-102.502,173.772-131.472,143.081c-7.34-7.778-0.373-15.472,2.563-22.796 c10.619-26.483,20.323-53.082,18.915-82.376c-1.862-38.77,32.946-23.433,79.408-55.626 C4450.077,3936.127,4453.101,3950.374,4452.927,3973.061z"/> <path d="M2148.859,1491.091c13.613,0,23.676,0.138,33.734-0.029c19.586-0.325,45.023-6.823,39.935,26.499 c-3.855,25.255,6.179,62.566-39.788,61.029c-11.578-0.387-23.844-0.921-34.479-4.901c-31.3-11.715-78.53-13.379-70.225-61.834 C2085.908,1465.941,2128.288,1502.594,2148.859,1491.091z"/> <path d="M2312.335,1334.845c-23.194-0.378-39.167-5.75-40.719-26.907c-2.669-36.352,10.165-68.363,42.359-85.484 c32.446-17.255,69.634-27.538,104.354-5.673c29.193,18.384,15.641,77.343-23.725,95.096 C2367.607,1324.052,2337.008,1328.241,2312.335,1334.845z M2325.135,1276.572c27.144-1.514,42.524-8.125,52.006-26.685 C2351.519,1237.425,2340.286,1254.144,2325.135,1276.572z"/> </g> </svg>