<?xml version='1.0' encoding='utf-8'?>
<svg xmlns="http://www.w3.org/2000/svg" version="1.1" id="Layer_1" x="0px" y="0px" viewBox="0 0 3428 5000" style="enable-background:new 0 0 3428 5000;"> <g transform="translate(1010.48 -12.7722)"> <path d="M-43.9,4925.3c-112-28.9-334.5-104.4-370.2-123c-135.3-70.2-301.5-229-281.7-380.7c42.5-324.9,638.8-434.6,962.1-448.4 c41.3-1.8,97.8,9.3,135.7-9c16.1-7.8,13.8-16.6,13.7-33.3c-0.3-71.1,14.4-82.6-11-87.2c-134-24.4-286.1-95.4-310.3-123.7 C27,3641.1,206,3514.5,226,3514.3c13.9-0.2,37.4-33.3,205.1-50.7c34.2-3.6,13.1-35.8,29-173c3.8-33.1,2.7-97.5,2.7-202.8 c0-72.3-0.7-81.5-6.8-88.1c-6.5-7-6.5-8.2-0.6-21c20.6-44.6,10.6-763.9,0.4-769.3c-3.9-2-7.2-6.2-7.2-9.2 c-0.2-13.2-17.7-10.4-21.3,3.4c-5.1,19.8-56.3,132.9-69.8,154.5c-3.4,5.4-8.4,17.6-11.2,27.3c-9,31-11.8,9.7-97.1,193 c-32,68.7-84.6,153.6-96.8,180.3c-15.1,32.9-17.3,35.4-24.7,28.2c-5.2-5.1-1.3-17.1,18.3-55.7c59.3-116.9,51.2-117.7,63.5-129.1 c4.2-3.9,7.5-8.7,7.5-10.7c-0.1-7.7,76.2-162,83.4-168.7c12.1-11.2,9.2-27.1,66.3-133.9c12.2-22.9,7.4-23,14.2-31.2 c7.4-9,13.9-35.1,25.9-54.9c7.5-12.2,21.5-48,21.7-55.5c0.1-4.1-20.8-3.4-32,1.1c-13.7,5.4-35.3-12.9-41.1-34.6 c-5.5-20.8,1.7-42.1,14.3-42.2c8.2-0.1,8.4,2.5,1.4,21.7c-1.7,4.8,20.3,24.4,27.5,24.5c2.5,0,9.7,4.2,15.9,9.1 c16.2,12.9,43.5-9.5,34.5-28.4c-7.2-15,0.7-67.9-10.7-80.7c-5.9-6.6-8.5-14.1-14.3-40.8c-3.5-16.4,12.4-29.1,12.7-47.8 c0.3-20.3,29.1-66.7,50.9-82.3c29.2-20.8,147.8-47,155.8-34.5c5,7.8-6.6,15.5-32.8,21.7c-97.2,22.9-84.8,44.3-103.2,54.5 c-17.2,9.5-3.6,59,19.4,70.6c6.2,3.1,15.1,10.9,19.8,17.3c14.4,19.8,24,4,32,21c5.3,11.2,13.9,12.3,20.9,2.7 c4.6-6.4,6-6.3,22.6,2.5c16,8.4,19.3,8.9,34.1,4.7c26.4-7.4,32,3.7,8.9,17.7c-34.4,20.9-50.5-6.1-60.6,8.4 c-10.5,15.1-25.2,21.3-44.6,19c-23.3-2.8-35.6,4.7-35.4,21.7c0.1,7.4-3.3,14.9-9.6,20.8c-18.5,17.6-0.5-10.7-10.9,395.5 c-4.2,162.3,8.3,427.9-0.1,583.1c-4,73.2-9.2,551.3-16.4,572.6c-2.1,6.2-22.1,6.6-28.2,0.6c-2.6-2.5-5.8-3.3-7.2-1.9 c-4.7,4.8,27,14.7,41.1,12.8c9.2-1.2,17.1,0.4,23.6,4.8c21.1,14.3,216.1,17.2,250.9,3.8l20.3-7.9c-0.1-5.8-1.8-149.9-6.3-152.6 c-4.5-2.7-4.6-16.1-0.2-17.8c5.1-1.9,17.6-1134.1,28.3-1137.9c16.6-5.8-10.7,968.6-8.1,1228.5c0.6,57.2,2.7,72.4,10.3,72.3 c7.4-0.1,5.5-119.3-2-122c-4.5-1.7-4.3-3.4,1.2-9.6c5.6-6.3,6.2-11.7,3.7-31.9c-8.9-73,2.5-204.1,2.6-204.6 c0-0.4,3.9-386.9,11.1-684c7-286.1-4.2-324,9-326.7c7.9-1.6,12.6,12.1,12.9,37.8c0.4,44.2-3.6,175.6-5.5,178.7 c-6.5,10.9-6.3,695.6-15.1,801.7c-14.7,177.8-0.4,333.2,0.4,333.2c5.2-0.1,1-12,9.3-25.1c4.7-7.4,5.6-19.3,4.3-59 c-7.2-224.9,5.1-207.4,3.8-514.7c-0.2-53.7-3.6-442.7,16.1-733c0.2-2.4,5.4-6.6,11.6-9.2c12.9-5.5,17.2-12.8,17.2-29.4 c0-10.7,1.1-11.6,13.6-11.8c21.9-0.3,22.3,24.8,0.8,47.3l-15.5,16.2c6.5,127.6,11.4,117.4,3.6,129.6c-4.8,7.5-6.4,21.3-6.9,57.7 c-1.6,125.1-6.8-59.5-8.6,288.1c-0.9,184.8-6.8,189.9,8.3,189.7c8.8-0.1,0.6,10.2,12.4,43.1c16.3,45.4,2.2,47.8-9.8-0.5 c-12.2-49.2-19.8-16.2-15.1,66c13.6,238.8,3.9,38.9-1.8,392.2c12.3,2.1,21.8,4.6,64.4,6c31.8,1,62.5,10.3,93.7,16.1 c106.2,19.8,198.6,93.9,229.9,158c48.8,100.2-204.3,182.7-329.8,197.9c-10.6,1.3-20.4,3.6-22,5.2c-4.2,4.4-7.6,101.7-3.6,102.1 c155.5,16.1,351.3,10.9,658.4,105.4c416.2,128.1,638.8,384.5,293.8,652.4C1411.3,5060.8,509.8,5068.3-43.9,4925.3z M815.8,4982.9 c9.1-6.6-70.2,0.4-72.5,2.8C738.6,4990.5,815.9,4986.3,815.8,4982.9z M653.1,4981.3c-7.8-4.9-58.2-4.3-58.1,0.7 C595,4986.9,661.9,4986.9,653.1,4981.3z M691.8,4980.9c-30.2-9.3-46.4,4.7-10.6,3.6C697.2,4984,699.5,4983.2,691.8,4980.9z M861.4,4977.9c-8.3,4.1-8,4.4,4.6,4.5c10.2,0.1,12.3-1,8.8-4.4C874.8,4979.8,873.7,4971.8,861.4,4977.9z M910.7,4978.2 c13.5-6-19-3.8-25.2,0.3C878,4983.4,899.4,4983.2,910.7,4978.2z M1050,4964.6c20.6-8.6-67.8,0.5-67.7,5.9 C982.3,4974.5,1037.5,4969.8,1050,4964.6z M1090.6,4960.5c8.2-2.7,7.2-3.2-6.8-3.4C1057.9,4956.8,1063.7,4969.5,1090.6,4960.5z M248.2,4959.6c-2.4-3.8-67.9-15.5-75.6-11.2c-9.4,5.3,3.3,7.8,72.7,14.1C248.1,4962.8,249.4,4961.4,248.2,4959.6z M555.8,4948 c-0.2-14.9-157.5-3.3-90.1,1.5C503.3,4952.1,555.8,4951.3,555.8,4948L555.8,4948z M594.5,4947.2c-0.1-5.1-15.6-4.9-15.5,0.2 C579.1,4952.5,594.6,4952.3,594.5,4947.2z M1222,4935.6c9-6-19.4-4.5-19.4,0.2C1202.7,4940.8,1214.5,4940.6,1222,4935.6z M1260,4931c-1.9-5.4-8.4-5.4-10.1,0.1C1248.1,4936.7,1261.9,4936.5,1260,4931z M1110.5,4882.7c-6.1-5.9-40.5,7.5-312.4,16.9 c-64.5,2.2-65.1,2.2-64-6c1.1-8.3,15.5-9.7,119.2-11.8c12.1-0.3,112.3-7.6,187.8-11.8c366.9-20.5,704.7-187.5,840.7-331.5 c62.2-65.9,108.9-169.4,34.6-246.1c-24.4-25.2-32.6-37.1-55.6-53.8c-9.8-7.1-23.1-17.7-29.6-23.5c-11.2-10-90.1-50.1-118.9-60.4 c-205.2-73.3-319.2-133-673.9-159.1c-27-2-138.3-38.4-137.6,15.5c0.6,45.1-23.1,8.3,153.4,33c206.8,28.9,286.6,37.7,493.5,120.5 c74.4,29.8,147.5,70.4,197.3,136.2c51,67.3,62.2,152.6-2.7,215.2c-45.6,44-117.6,96.7-156.1,114.3c-35.8,16.3-26.3,22.2-35,22.3 c-8.7,0.1-100.5,50.3-120.8,55.9c-7.1,2-106.3,35.5-135.1,42.1c-379.1,87.2-717.4,44.8-888.7,34.1c-56.5-3.5-121.3-20.1-225.1-32 c-137.2-15.8-136-36.8-272.2-63.2c-24.6-4.8-14-24.3-3.7-27.9c33.7-11.8,84.5,61,659.4,112.2c204.6,18.3,410,12.4,612.4-23 c176.8-30.9,136-28.4,233.5-59.9c39.7-12.8,90.6-36.6,90.5-42.3c0-2.1-2.5-2.9-5.6-1.7c-19.6,7.8-33.1,7.7-33.2-0.3 c-0.1-10.9,12-10.3,46.2-21.2c27-8.6,157.8-84.1,157.7-94.1c-0.1-5,16-6.9,24.4-25.2c12.2-26.4,40.5-39.9,40.1-81.1 c-0.2-15.3,26.9-36.2,19-0.1c-5.3,24.3-4.2,34.5,2.9,27.1c10.6-10.9,11.3-60.2,1.2-81.7c-4.7-9.9-8.5-18.9-8.5-19.9 c-0.4-30.8-97.1-115.9-164.5-146.4c-29.2-13.2-76-30.7-131.8-53.8c-40.2-16.6-52.1-13.5-66.7-20.6c-13.6-6.6-58.6-12.2-64.1-16.4 c-14.5-11.1-306.6-51.8-322.2-54.6c-36.8-6.7-79.2-1.5-90.2-11.3c-8.1-7.1-6.8,0-4.8,159.6c51,7.3,181.2,0.2,295.1,70.2 c178.7,109.8,115.5,227.4-149.9,278.9c-125.5,24.3-130,29-225.7,36.2c-145.4,10.9-60.6,20.3,129.7-5.1 c96.4-12.9,116.3-12.1,152.7-27.9c19.5-8.5,77.7-18.3,112.1-44.1c23.7-17.8,30.6-10.4,55.4-42.7c23.8-31.1,29.6-34.8,34.4-53.5 c6.1-23.9,26.7-30.3,26.8-8.3c0.4,49.8-74.2,133.1-119.9,134c-2.1,0-78.7,32.3-124.9,42.2c-13.2,2.8-17.3,9.9-5.7,9.7 c7.3-0.2,90.4-20.8,98.6-27.4c2.6-2.1,11.8-5,20.4-6.4c58.2-9.6,136.4-69.3,145.9-111.5c4.8-21.3,18.1-28.2,24.1-12.5 c17.8,46.3-81.9,123.7-199.1,154.7c-13.8,3.6-31.2,8.7-38.6,11.1c-18.1,6-143.5,9.4-150.1,4.1c-3.5-2.9-22.7-1.8-65.9,3.5 c-87.4,10.9-203.2,10.5-217.5-0.7c-8.7-6.8-199.6-3.5-210.1-9.8c-16.6-10-73.7-0.4-190.7-28.6c-61.1-14.7-124.5-20.7-182-48.5 c-63-30.5-164.8-135.3-89.1-201.7c90.4-79.3,218.4-127.6,339.1-127.6c0,0,38.7-3,38.7-3c5.8-58.6,5-61.5,2.4-120.1 c-205.3,6-383.7,23.8-604.3,97.8c-127.8,42.9-111,47.1-153.8,67.1c-48.2,22.5-90.2,70.4-112.1,118.3 c-16.7,36.5-14.5,109.1,17.2,139.4c33.9,32.4,69.9,64.4,112.4,85c16.1,7.8,109.7,20.3,109.9,40.9c0.1,11.2-9.8,13.3-32.3,6.7 c-57.8-16.9-116.3-30.5-161.7-73.2c-27.2-25.7-51.4-42.7-66.6-79c-36.7-87.7-1.8-180,73.3-226C-172.2,4103-28,4104,76.4,4076.2 c116.6-31,143.8-28.8,334.7-31.5c7.4-53.7,13.3-53.4-40.9-47.6c-107.5,11.4-200.7-18.7-514.6,64.5 c-175.3,46.5-391.8,114.8-485.6,274.8c-35.5,60.5-36.2,143.6-12.7,208.3c35.3,97,118.6,141.9,205.9,185.1 c200.9,99.5,358.1,130.4,572.8,156.1c228.1,27.3,195.3,24.1,368.9,29.7C971.5,4930.8,1119.7,4891.6,1110.5,4882.7z M1543.1,4570.7 c53.6-22.8,102.6-64.7,117-100c14.6-35.7,18.8-42.5,27.4-43.8c41.8-6.5-22.6,92.2-82.6,126.5c-20.7,11.8-24.6,20.6-38.5,24.2 c-5.4,1.4-17.5,7-27,12.5c-40.4,23.2-39.4,22.9-46.1,15C1490.9,4605.3,1485.7,4595.2,1543.1,4570.7z M1222.4,4591.8 c3.5-20,153.1-35.9,170-116.4c5.6-26.5,48.7-4.4-3.5,49.1c-24.7,25.4-23,27.5,6.5,7.7c27.4-18.4,47-38,63.6-63.6 c14.5-22.4,25.4-25.8,27.6-8.6c5,38.8-132.4,133.3-172.5,118.7C1293.5,4571.1,1218.5,4614,1222.4,4591.8L1222.4,4591.8z M1481.2,4570.4c-19.9-23.4,76.4-15.2,111.6-102.9c25.4-63.5,64.4,31.3-69.7,91.7c-9.8,4.4-19,10-20.4,12.4 C1497.6,4579.8,1481.2,4573.5,1481.2,4570.4z M1494.6,4519c-8.8-8.6,6.6-31.6,18.2-27.3c8.8,3.3,7.5,16.6-2.4,23.6 C1501,4522.2,1498.5,4522.8,1494.6,4519z M-393.6,4477c-25.6-59.2,15.4-146.9,92.8-198.5c71.3-47.5,128.3-66.5,132.5-70.4 c5.4-4.9,15.3-1.1,31.5-9c130.7-64.6,214.9-51.2,292.3-62.6c42.5-6.2,5.3,27.8-34.4,23.6c-27.7-2.9-94.6,13.2-105.5,10.5 c-22-5.5-109.1,33.4-122.9,33.6c-7.2,0.1-52,23.7-79.8,33.5c-24.1,8.5-34.6,15.3-65.5,31.7c-133.5,70.8-120.3,153.9-116.5,220.8 C-382.8,4490.3-387.1,4492-393.6,4477L-393.6,4477z M-431.4,4453.2c-33.1-35.7,1.6-122.2,66.9-167.2c8.4-5.8,23.4-18,33.4-27.1 c41.2-37.6,143-76.5,150-80.9c15.3-9.6,33.9-10.8,34-2.2c0,3.3-3,6.9-6.7,8.1c-54.1,17.5-148.6,72.1-155.3,79.5 c-5.1,5.6-15.8,14.6-23.9,19.8c-56.9,37.3-103.3,118.3-89.3,155.7C-416.1,4455.1-421.7,4463.8-431.4,4453.2L-431.4,4453.2z M-335.3,4417.4c-17.3-16.8,33.7-97.3,75.4-119.1c6.4-3.3,19.7-10.8,29.6-16.6c37.9-22.1,40.2-2.6,25.5,5.3 c-58.5,31.7-114.1,94.2-113.7,127.8C-318.5,4420-330.8,4421.8-335.3,4417.4L-335.3,4417.4z M16.9,4915.5 c-0.1-5.1-20.7-4.9-17.4,0.2C2.7,4920.8,16.9,4920.5,16.9,4915.5z M-88,4897.4c0.1,5.4,39.3,9.8,32.8,4 C-55.2,4898.4-88,4892.5-88,4897.4z M1211.3,4870.1c123.6-23.9-48.3-5.7-48.1,4.4C1163.2,4879.4,1163.1,4879.4,1211.3,4870.1 L1211.3,4870.1z M1341,4838.8c12.7-8-2.1-1.5-12.2-1.4c-4.2,0.1-6.6,1.8-5.2,3.9C1326.8,4846.5,1329.5,4846.1,1341,4838.8z M1379.6,4828c6.5-2.5-19.4-5.4-19.3,3.4C1360.3,4839.7,1366.3,4833.1,1379.6,4828z M1645.8,4778.8c48-22.3-28.6,1.4-36,9.1 C1604.1,4793.7,1624.8,4788.5,1645.8,4778.8L1645.8,4778.8z M1617.3,4750.1c12.3-4.9,19.1-13,10.9-13c-11.4,0-8.4,4.6-29.7,11.7 c-16.9,5.6-19.2,11.4-3.5,8.9c17-2.7,17,11.5,26.9,7.6c5.3-2.1,5.1-3.1-1.3-7.9C1620.8,4757.3,1612.8,4751.9,1617.3,4750.1z M-416.6,4773.9c-4.4-6.9-25.6-11.8-25.5-5.9c0,2.9,4.9,6,10.7,6.8C-419.5,4776.5-413.7,4778.6-416.6,4773.9z M1834.4,4635.5 c-0.1-6.2-10.5-12-14.4-8C1816.2,4631.4,1834.6,4651.2,1834.4,4635.5z M1870.4,4603.7c5.2-17.4,30.5-25.6,7.8-29.6 c-17.3-3.1-1,7.5-20.5,25.4c-12.4,11.3-9.9,15.5-7.1,29.1C1871.9,4608.1,1870.4,4603.1,1870.4,4603.7z M1244.8,4463.2 c37.8-28.1,28.8-101.8-16.1-131.9c-27.5-18.4-74.2-86.2-254.6-103.8c-78.9-7.7-74.5-13.5-75.6,5.4c-0.7,11.1-0.6,11.1,24.5,11.8 c97.9,2.5,32.6,28-19.1,16.2c-3.4-0.8-6.2,1.9-6.8,6.4c-2.6,18.1,89.6-5.6,98.3,20.5c4.8,14.5-4.3,18.1-21.4,8.5 c-18.6-10.4-37.9-9.3-76.5-10.6c-5.3,64.1-7.6,82.3,6.4,102.4c7.7,11.1,9.7,17.7,8.3,27.5c-1.6,11.1-1,12.6,4.6,10.2 c17.3-7.4,20.1-7,20.2,2.5c0.1,5.4-4.8,14.2-11.4,20.7c-19.3,18.9-13.3,29,7.7,13c16.7-12.7,29.8,6.2,13.8,19.9 c-5.4,4.6-5.4,5.4,0.1,8.4c9.6,5.2,7.5,18-3.8,23.3c-8.6,4.1-10.8,3.7-15.6-2.6c-5.4-7.2-6-7.2-23.8-0.2 c-51.6,20.3-66.5,21.9-66.7,7.2c-0.1-12.2,6.2-2,39.1-18.4l20.6-10.3c-9.9,1.3-37,4.7-46,6c-15.3,2.3-10-8.4,8.2-16.6 c19-8.4,54.4-40.9,49.6-45.5c-1.4-1.4-9.1,2.8-17.1,9.2c-21.9,17.6-57.7,23.6-61.2,29.5c-2.8,4.6-25,2.1-44.1,7.6 c-48.5,14.1-290.5,14.2-317.4,0.3c-4.2-2.2-10.8-3.9-14.6-3.9c-47.3,0.3-94.3-51.7-71.2-78.7c11.3-13.2,12.3-17,14.8-53.6 c5.7-83.1,5.9-107.8,0.8-104.5c-2.6,1.7-16.9,3.6-31.8,4.4c-49.4,2.4-52.2,10.4-52.3-1.4c-0.1-10.1,11-14,39.7-13.7 c23.6,0.2,49.8-6.3,29.8-7.4c-24.9-1.5-71.4,1.7-77.8,5.2c-4,2.2-13.8,3.9-21.8,3.9c-33.2-0.2-34-3.8-142.4,38 c-37.7,14.6-87.4,52.8-98.9,76.2c-8.5,17.3-8.2,29.7,0.3,16.5c49.6-76.3,189.8-118.2,189.9-102.5c0.1,6.9-12.2,15-23.1,15.3 c-9.8,0.2-70.1,30-98.2,48.5C82.2,4342,53,4382.5,53.2,4404c0.1,6.3-3.1,12.5-8.3,16.1l-8.4,5.7c25.5,36.1,25.6,39.2,79.3,64.5 C487,4664.8,1101.8,4569.6,1244.8,4463.2z M675,4516.7c-26.2-16.9,66.9-6.9,73.2-17.3c2.7-4.4,4.8-4.6,11-0.9 c6.1,3.7,12.1,3.4,29-1.2c29.7-8.1,47.2,1.5,25,13.7C802.9,4516.6,682.6,4521.6,675,4516.7L675,4516.7z M1029.7,4506.6 c-6.7-16.9,31.6-14.1,74.5-30.9c22.4-8.8,42.4-15.3,42.3-19.6c-0.1-4.8,26.4-19.7,35.1-19.8c45.1-0.6-31.6,47-106.2,65.8 C1033.5,4512.7,1032.2,4512.9,1029.7,4506.6L1029.7,4506.6z M1208.6,4428.6c-6.5-3.9-2.3-20.9,7.2-29.8c4-3.7,7.3-9.9,7.2-13.6 c-0.2-18.5,11.7-25.5,21.3-12.7C1256,4388,1224.2,4437.9,1208.6,4428.6L1208.6,4428.6z M112,4394.4 c-26.2-25.6,60.9-103.4,95.6-85.3l8.7,4.5c-5.9,4.9-16.4,14.6-24.2,14.7c-21.5,0.3-61.8,39.4-61.6,59.8 C130.7,4405.1,112.1,4398.1,112,4394.4z M1038.6,4271.5c-8.5,0.1-13.8-11.1-7.2-15.3c10.6-6.7,80,13.7,87.7,25.8 c1.4,2.1,6.9,3.8,12.3,3.8c31.9-0.4,57.4,54.5-8.1,16.6C1128,4302.4,1058,4271.2,1038.6,4271.5z M1943.9,4511.2 c9.3-18.5,1-20.1-10.7-2.1C1907.9,4548.2,1932.2,4534.5,1943.9,4511.2z M1738.4,4483.9c10.2-19.9,10.6-22.2,2.9-15.6 c-8.5,7.3-2.1,8.1-13.3,19.5C1713.4,4502.7,1722.6,4514.8,1738.4,4483.9z M759.7,4448.8c46.3-14.7,51.1,3,53.9-38.1 c3.1-45.7-0.3-106,7-120.7c6.8-13.6,0.6-23.2,6.5-106.7c6.1-86-4.3-192.3-15.6,106.4c-3.6,94.7-15.1,63.6-14.5,112.3 c0.3,27.7-2.1,31.7-14.7,24c-4-2.5-4.8-8.6-3.2-24.1c2.6-24.3-3.9-40.6-7.9-19.6c-4.6,24.4-22.4,16.6-18.6-8.1 c14.6-94,20.1-66.5,23.3-119.8c3.8-64,14.5-19.1,17.1-73.8c1.7-35.8,18.3-126.3,7.3-142.7c-2.8-4.2-3.9-0.5-4.2,13.6 c-1,55.5-5.7,91.1-12,91.2c-7.8,0.1-10.7-13-6.7-29.8c5.2-21.6,2.5-95.1-3.6-97c-5.2-1.7-5.3-0.4-5.2,84.3 c0.1,68.5-10.1,71.3-14.5,4.1c-3.5-52.9-0.8-46.5-19.5-46.3c-22.5,0.3-21.1-10.1,1.8-13.8c9.6-1.6,17.4-4.2,17.4-5.8 c-0.3-21.2-5.4-27.9-19.9-25.4c-34.3,5.9-56.9-11.6-15.1-9.9c27.4,1.1,31.8-2.4,32.6-25.8c1-30.1,0-30.6-51-25.8 c-14.9,1.4-29.5,1.1-32.4-0.7c-9.7-5.9,2.7-9.2,40.6-10.9c38.9-1.7,43.9-3.2,43.8-12.3c-0.2-13.1-61.9,7.7-62.1-6 c-0.2-14,60.5,1.3,64.6-14.8c2.3-9.4,8.2-10.1,14.6-1.5c6.5,8.6,13,3.6,10.6-8.3c-6.8-33.5-63.6,2-124.1-8.6 c-13.3-2.3-26.6-3.3-29.5-2.1c-14,5.6-151.4-5.3-158.8-12.5c-6.9-6.7-27.6-10.2-22.1-3.7c6.5,7.7-2.7,96.5-1.2,236.2 c1.4,132.8-5.4,154.4-9.6,281c-0.8,24.4-20.3,24.2,6.7,31.2c31.3,8,44,24,134.8,33c20.2,2,37.7,4.7,38.9,5.9 C618.8,4460.9,745.4,4453.3,759.7,4448.8L759.7,4448.8z M724.4,4325.6c-3.9-6.1,6-24.2,5.1-108.6c-0.6-56.1,3.1-74,13.3-64.1 c4.7,4.6,4.1,126.3-0.7,150C737.9,4323.4,729.7,4333.9,724.4,4325.6L724.4,4325.6z M566.8,4058.1c8.3,2,13.5,13.2,6.4,14 C483.1,4081.9,544.7,4052.9,566.8,4058.1z M586.5,4042.4c-4.2-4.1-104.3-7.4-106.8-14.7c-4.3-12.4,76.6-2.8,103.1-0.7 C626.8,4030.5,596.7,4052.4,586.5,4042.4L586.5,4042.4z M527.2,4006.6c-40.3-6.8-34.5-25.7-1.2-15.1c46.9,14.9,118.7-9.9,118.9,3 C645,4005.2,566.7,4013.2,527.2,4006.6L527.2,4006.6z M695,3973.5c-0.1-5.1,24.5-5.6,21.3-0.3 C713.2,3978.4,695.1,3978.5,695,3973.5z M549.4,3948.1c-8.1-12.8,58.1-6.9,58.1-2.6C607.5,3950.6,552.5,3953.1,549.4,3948.1z M509.2,3910.8c-2-5.9,14.3-6.4,47-1.5c42.5,6.4,85,5.3,82.8,12c-1.9,5.9-5.1,6.1-53.1,2.8C594.5,3923.9,512.9,3921.4,509.2,3910.8 z M792.4,4334.5c-0.1-5.3-1.9-9.7-4-9.6c-4.3,0.1-5.2,12.8-1.1,16.8C791.6,4345.9,792.5,4344.7,792.4,4334.5z M852.9,4288.6 c1.4-40.7,1.1-43.5-4.8-38.5c-11.2,9.5,4,5.2-2.2,27.9C835,4317.6,849.6,4383.4,852.9,4288.6z M794.4,4303.7 c3.7-9.9-3.1-15.8-8.9-7.7C771.4,4315.9,792.1,4309.9,794.4,4303.7z M853.3,4209.5c-5-20.3-3.7-21.5-3.9,4 c-0.1,13.1,1.1,17.9,3.8,15.2C855.7,4226.1,855.8,4219.5,853.3,4209.5z M852.5,4181.9c-0.2-15.9-9.2-2.7-6.4,4.5 C852.4,4202.2,852.9,4181.1,852.5,4181.9z M856.6,4137.6c-2.8-17.4-7.1-9.7-5.1,8.9C854.3,4171.4,858.7,4150.7,856.6,4137.6z M828.5,4039.6c1.3-7.5,0.1-9.7-5.5-9.6C806.1,4030.2,823.7,4066.5,828.5,4039.6z M808.7,3961.4c2.4-17.2,1.9-20.4-3.2-20.3 c-6.9,0.1-17,16.6-11.3,18.4c2.1,0.7,3.2,15.9,2.5,36c-1.1,30.8,6.2,54.6,8,26C804.3,4021.5,805.5,3983.9,808.7,3961.4z M779.7,3989.2c-1.7-13.3-11.1-16.8-11-4c0.1,9.8,3,14.5,8.8,14.4C779.5,3999.6,780.5,3994.9,779.7,3989.2z M784,3962.4 c-0.1-8-11.8-12.2-3.9-27.4c4.8-9.3-0.6-22-6.7-15.7c-3.7,3.8-8.3,34.6-6,40.4C769.2,3964.6,784,3967,784,3962.4L784,3962.4z M809.9,3920.4c1.7-9.5-14.9-7.3-14.8-1.1C795.2,3931.2,807.8,3932.1,809.9,3920.4z M807.1,3892.7c2-19.2-8.7-17.5-8.5,0.1 C798.8,3910.7,805.2,3910.8,807.1,3892.7z M740.3,3876.1c-0.1-5.1-15.6-4.9-15.5,0.2C724.9,3881.4,740.4,3881.2,740.3,3876.1z M775.1,3867.9c-0.1-5.1-15.6-4.9-15.5,0.2C759.6,3873.2,775.1,3873,775.1,3867.9z M660.1,3807.2c1.4-2.4,8.9-3.9,16.7-3.5 c26.4,1.4,45.7-0.9,39.1-4.7c-14.7-8.4-153.5,6.5-281.9-35c-12.8-4.1-35.3-9.2-50-11.3c-92-12.9-183.5-50.5-184.5-75.9 c-0.1-3.5-4.2-7.4-9-8.6c-11.7-3-29.2-18.6-31-27.6c-2.9-14.2-18-10.9-24.8,5.4c-14.1,33.4-13.9,55.6,0.4,55.5 c11.5,0,25.1,19,30.6,18.9c5.6-0.1,41.3,25.8,59,31.9c17.5,6.1,84.5,41.3,84.4,29.3c-0.1-5.4-38.9-10.4-39-18.2 c-0.1-11.7,29.1,12.2,36-0.5c3.8-6.9,38.7-5.1,48.4,2.5c6.4,5,175.4,39.1,228.1,43.8C622.7,3812.9,665.4,3809.8,660.1,3807.2z M903.3,3779.1c1.1-3.1,4.6-4.7,7.6-3.6c13.9,5.2,60.3-13.1,60.3-23.8c0-3.7-32.4,0.7-42.1,5.7c-43.5,22.7-194.3,14.9-199.3,29.2 c-5.1,14.6-10.3,17.7,6.2,14.6C871.8,3775.3,899.2,3790.1,903.3,3779.1z M965.3,3737.6c70.5-13.4,54.5-19.9,75.4-20.2 c46-0.6,138.5-71.4,138.1-105.7c-0.3-26-85.9-80.9-125.4-80.4c-4.7,0.1-28-4.1-51.7-9.3c-123.1-26.8-137.5-25.3-125.2,13 c4,12.5,6.6,14.5,26.2,19.9c123,34,113.2,32.2,126.5,88.6c-39.6,53.2-26.5,38.5-97.2,63.8c-35.3,12.6-50.2,14.6-50.3,6.5 c0-3.9,4.3-7.3,11.2-8.7c13.1-2.8,21.5-13.5,27.8-20.4l-8.1-2.5c-12.9-3.9-6.6-17.5,8.1-17.6c9.1-0.1,9-8.9,15.1-22 c10.7-23.2-12.7-29.6-12.6-19.6c0,3.1-3.5,10.2-7.8,15.8c-7.8,10.2-21.5,17.6-63.3,34.5c-52.8,21.2-330.7,31.4-355.4,12.9 c-4.6-3.5-36.7-13.1-58-17.5c-14-2.9-29.6-16.9-32.7-29.5c-2.7-10.8-1.6-12,28.8-32.1c42-27.7-2.5-42.4-54.9-18.1 c-79.9,37.1-11.3,68.5-27.2,82c-5.4,4.6-17.8,2.1-17.9-3.6c0-1.8-4.5-9.7-9.9-17.4c-30.8-44.2,22.6-91.9,116.9-104.5 c10.9-1.5,9.7-1.3,8.1-51.6c-85.2,1.7-228.1,32.4-283.5,107c29.3,55.5,3.1,15.8,26-15.1c18.6-25,103.1-57.8,166.3-64.4 c48.4-5.1,32.2,7-27.3,20.4c-83.7,18.9-128.3,47-123.8,78.2c2.4,16.4-4.2,23-14.6,14.6c-20.9-16.9,7.6,48.9,218.2,99.5 c65.9,15.8,178.1,27.9,263,28.3c101.4,0.5,57.1,6.8,83.7,2.9C825.6,3755.5,809.2,3767.4,965.3,3737.6z M728.9,3737 c-14.2-5.3-109.3,6.2-96.3-7.2c6.6-6.8,108.8-8.8,111.4-2.2C751.5,3746.4,728.5,3737,728.9,3737z M769.6,3728.6 c-15.7-9.6,21.8-8.4,75.2-18.6c16-3,25.5,3.1,17.5,11.3C854.7,3729.2,769.7,3734,769.6,3728.6z M418.3,3698.8 c2.5-2.5,37.6,6.5,43.9,11.3C488,3729.5,402.6,3714.8,418.3,3698.8z M311.6,3563.6c15.1-0.2,12.7,12.2-3,15.7 c-22.2,4.9-52.2,23.7-60.2,37.5c-8.8,15.3-20,17.6-26.6,5.6C209.8,3610.8,262.5,3564.4,311.6,3563.6z M281,3623.1 c-5.8-2-6.6-15-1.2-18.5c7.4-4.7,18.7,1.6,16.7,9.4C294.6,3622.1,288.5,3625.7,281,3623.1z M1065.2,3736.5 c3.3-13.3,23.6-4.2,15.3-12.3c-5.2-5.1-29.6,10.6-25.9,16.6C1058.3,3746.7,1063.1,3744.7,1065.2,3736.5L1065.2,3736.5z M1118,3710.7c4-4.9,3.5-5.9-3-5.8c-4.3,0.1-9.9,2.7-12.5,6c-4,4.9-3.5,5.9,3,5.8C1109.7,3716.6,1115.4,3713.9,1118,3710.7z M1158.4,3691.6c46.6-32.4,34.2-47.3,19.1-30.3c-9.7,11-48.1,35.5-48.1,40.4C1129.6,3710.1,1158.4,3691.2,1158.4,3691.6z M267.3,3705.7c-10-7.4-22.7-7.3-9.5,0C270.6,3712.8,276.9,3712.8,267.3,3705.7z M950.6,3675.2c24.2-13.3,9.4-15.8,23.3-28.6 c16.3-15.1-8-56.1-33-55.8c-10.1,0.1-7.2,5.1,9.5,16.3c12.9,8.7,15.4,12.5,15.2,23.1c-0.5,26.5-4.9,32.6-33,45.7 C915.7,3683.7,924.4,3689.6,950.6,3675.2L950.6,3675.2z M836.1,3634.6c-2-5.9-4-7.2-6.8-4.2 C822.5,3637.3,843.4,3656.7,836.1,3634.6z M880.3,3569.9c-6.2,3.9-5.1,13.9,1.4,13.8C897.4,3583.6,886.9,3565.8,880.3,3569.9z M463.4,2131.8c-6.3,15.9,2,33.2,10.3,21.5C485.6,2136.6,474,2105.4,463.4,2131.8z M501.2,2061.2c-0.2-16,30.5-39.4,48.7-37.2 c22.6,2.8,22-7.5-1-18.1c-8.6-4-21.6-10-28.9-13.4c-27.1-12.6-47-69.6-59.3-26.6c-10.3,36,20,16.6,14.9,84.9 c-3.3,44,1.7,52.6,17.1,29.3C492.3,2080.1,501.2,2067.6,501.2,2061.2z M454.4,1929c-7.4,10.4-6.3,13.5,4.6,13.4 C477.7,1942.1,465.7,1913.1,454.4,1929z M760,3579.7c-2.3-5.7-4.3-25.9-4.5-44.8c-0.4-32.7-0.8-34.4-9.2-35.5 c-11.7-1.5-7.8-3.8-8.3-110.6c-0.1-12,1.5-16.5,5.7-16.5c4.8-0.1,5.9,7.5,6.4,44.7c0.8,62.6,8.5,41.6,7.5,25.6 c-0.5-7.8-0.3-75.5,0.5-150.4c2.2-208.7-7.5-120-16.7-143c-3.8-9.6-3.4-125.4,0.5-127.8c1.8-1.2,3.3-5.7,3.3-10 c-0.1-4.6,3.1-8.8,7.6-10c14.7-4,0.6-29,13.3-177.6c5.1-59.7,3.4-321.4,5.9-334.2c1.8-9.2,12.8-12.4,13.7-4 c1.3,12.4,1.6,216.8,0.3,237.3C754.2,3255.2,782,3601.2,760,3579.7z M757.3,3061.3c-0.3-13.5-1-15.2-4.3-9.4 c-3.7,6.5-1.6,25.9,2.8,25.8C757.3,3077.7,757.7,3061.3,757.3,3061.3z M709.4,3433.4c-3-7.5,7.4-209.4,6.7-268.1 c-0.4-32,0.6-40.6,4.9-40.6c7.7-0.1,10.3,13.7,8.8,46.7c-2,43.9-4.9,223.8-4.1,246.8C726.5,3438.4,715.5,3448.7,709.4,3433.4z M1084.9,3367.2c-13.1-40.2-28.6-111.6-34.3-122c-21.9-39.8-43.4-155.2-48.7-168.6c-3.7-9.2-12.3-42.9-12.4-48.3 c-0.1-10.2,11.7-2.3,15.7,10.5c30.3,98.7,29.2,133.3,56.6,178.5c19.4,32,20.4,47.2,32.1,96.5c14.7,61.8,14.5,57.9,2.8,58.1 C1084.3,3372.1,1084.9,3365.4,1084.9,3367.2z M738.9,3356.3c-6.9-8.1,2-29.9,1.1-120.2c-0.5-52.8,2.9-72.6,9.2-53.5 C757.1,3206,747.5,3366.4,738.9,3356.3L738.9,3356.3z M1339,3277.2c-3.4-10.3-17.5-37.1-17.6-42.6c-0.1-7.5-1.7,5.7-29.3-50.1 c-162.1-326.8-96.6-209.6-151.8-331.4c-12.1-26.6-1.7-47.6,13.7-27.8c8.4,10.9,12.1,9.7,21.4,10.6c13.7,1.3,134.7,311.3,173.5,392 c20.6,42.8,21.6,53.2,5.1,55C1339.5,3284.4,1338.8,3277.6,1339,3277.2z M1255.4,3061c-41.1-120.4-87.5-192.4-90.1-197.5 c-6.4-12.8-13-7.3,8.3,33.2c22.2,42.2,7.9,19.8,38,80.7c30,60.5,17.9,47.2,31.7,73.8c5.3,10.3,11.6,23.7,14,29.7 C1271.2,3116.1,1255.3,3056.1,1255.4,3061z M673.3,3254.4c-4.8-4.7-2.9-15.9,3.2-18.3C691.7,3230.1,686.4,3267.2,673.3,3254.4z M362.3,3230.8c8.1-33.8-1.4-35.5,45.1-120.5c7.6-14,23-21.7,29.2-40.2c2.9-8.7,14.7-17.3,14.8-10.8c0.1,6.8-42.1,112.7-49.5,124.2 c-11.3,17.6-14.4,57.7-34.1,57.9C361,3241.4,360.2,3239.8,362.3,3230.8L362.3,3230.8z M149.6,3230.2c-5.2-5-4-8.7,10.6-31.9 c73.7-117.4,20.4-78.1,37.6-112.1c3.1-6.2,5.7-14,5.7-17.3c-0.1-6.9,52.1-121.8,54.4-133.2c1.5-7.3,4.6-10.7,9.8-10.8 c9.9-0.1,9.7,3.9-1.4,26.2c-32.9,66.4-53.5,132.1-36.4,116.3c3.9-3.6,9.1-6.5,11.6-6.6c6.6-0.1,1.1-9.9,11.9-28.1 c10.8-18.1,2.9-16.1,18.6-48.7c16.8-34.9,39.4-111.9,55-87.4c4.9,7.8-42.9,107.4-42.9,112.2c0.1,11.5-45.2,106-45.1,112.9 c0.1,8-23,16.3-22.9,24.8c0.1,10.1-47,83.6-56,87.5C156.1,3235.5,149.2,3230.6,149.6,3230.2z M670.1,3201.1 c-0.2-15.3,0.9-17.7,7.8-17.8c10.8-0.1,10.1,32-0.8,34.2C671.4,3218.6,670.2,3215.9,670.1,3201.1z M934.2,3187.1 c-8.7-10.2-25.3-111.2-9.1-83.2c2.2,3.7,5.5,5.8,7.4,4.6c6.1-3.8,14.9,14.7,18,37.6c2.6,19.5,2.1,22.3-3.7,22.3 c-13.7,0.2,7.1,17.7-4,22C939,3191.8,933.7,3187.1,934.2,3187.1z M58,3174c-11.5-13.5,97.4-211.4,134.5-316 c26.1-73.6,57.7-138.2,67.7-138.3c8.7-0.2,2.6,40.3-8.2,54.3c-5,6.4-24.5,48.6-24.4,52.8c0.1,6.5,30.6-12.6,13.7,12 c-3.6,5.3-8.4,7.7-13.1,6.5c-9.8-2.4-17,11.3-13.6,26.1c1.9,8.1-0.2,16.2-7.6,29.9c-5.3,9.8-62.3,112.1-62.1,127.7 c0.1,7.1,7.5-22.9-56.7,116.3C65.6,3194.2,59.1,3171.8,58,3174z M-97.4,3173.5c-9.8-6.1-1-1,34.3-83.8c6.2-14.6,14.2-22.5,31.8-74 c9.9-29,11.2-22.5,13.9-38.9c13.8-85.3,83.9-158.5,29.9-28.3c-4,9.7-6.3,18.6-5.1,19.8c3.1,3-4.1,7.3-12.1,27 c-9.6,23.7,0.7,16,13.5-10.1c20.5-41.7,26.4-44.5,26.8-12.8c0.2,15.4-1.3,22.1-5.5,23.7c-12.5,5-67.5,143.1-91.6,158.3 c-5.9,3.7-12,10.3-13.6,14.7C-80.2,3184-97,3173.1-97.4,3173.5z M927,3092.4c-1.4-1.4-2.7-11.1-2.8-21.6c-0.3-26.4,9-22.9,10.9,4 C937.2,3105.3,926.6,3092.5,927,3092.4z M365,3080.7c-3.1-7.9,21-72.2,18.3-74.8c-3.3-3.2-10.1,3.2-10,9.5 c0.1,12-8.5,35.8-13.8,37.9c-7.3,2.9-11-7.9-6.2-18.3c2.1-4.7,6.7-15,10-22.9c17.7-41.7,14.5,7.5,26.9-29.1 c9.3-27.3,11.3-30.4,20.5-31.9c12.1-1.9,11,6.2-8.7,65.8C368.5,3118.4,367.6,3079.4,365,3080.7z M1071.3,3032.2 c-13.8-45-24.5-76.4-24.7-82.8c-0.3-7.1-15.5-33.3-15.7-41.8c-0.3-7.8-3.9-3.2-17.6-44.1c-17.2-51.6-43.2-122.1-41.3-127.3 c0.8-2.2-0.9-6.5-3.6-9.7c-8-9.2-12-34.7-5.4-34.8c7.3-0.1,21.8,51.8,32,83.8c7.1,22.5,17,22.7,3.3-18.4 c-39.6-119.3-62.3-217.5-46.1-125.4c4.9,28,17.6,38.1,10.5,45.4c-9.1,9.3-11.6-5.7-40.7-96.5c-9.3-29.1-9.3-27.9-1.9-28 c10.9-0.1,5.3,17.4,23.7,17.1c11.5-0.1,24.4,17.4,25,34c0.5,12.7,7,12.9,20.3,64.3c17.8,68.7,35.9,77,72.7,268.4 c9.3,48.3,46.8,125.3,25.8,125.6C1078.7,3062.2,1071.1,3031.9,1071.3,3032.2z M1723.2,3047.9c-8.8-3.5-107.5-141.2-126.8-164.5 c-23.5-28.3-13.6-27.1-19.1-29.5c-7.3-3.1-17.1-26.5-13.7-32.7c6.5-11.9-19.9-44.7-30.5-38c-7.9,5-38.4-47.8-58.8-79.1 c-12.8-19.5-16.1-27.8-14.3-35.4c2.1-8.7,1.3-9.6-6.1-7.5c-9.4,2.6-26.9-14.4-27.3-26.6c-0.3-9.1,10.3-8.8,13.3,0.5 c3.3,10,32.1,37.5-12.1-25.6c-22.1-31.6-18.8-36-26-26.5c-4.9,6.6-5.9,6.7-10.7,1c-10-11.8,6.6-12.7,9.4-13.4 c5.2-1.3-31.9-45-69.8-100.4c-25.5-37.3-18.1-58.8,7.9-23c25.4,35.1,43.6,51.8,98.7,140.3c53.8,86.4,82.9,126.2,83,131.5 c0.1,5,0.4-0.8,23.3,29.5c18.6,24.5,162.2,228.1,187.7,254.1C1751.1,3022.6,1745.8,3056.7,1723.2,3047.9z M1610.1,2874.3 c-8.9-9.6-5.1-16.1-10.7-16c-8.8,0.1,12.6,23.1,15.3,23.1C1616.6,2881.3,1609.8,2874.3,1610.1,2874.3z M-428.2,3042.1 c-4.3-7.8-0.4-24.5,6.8-29.1c2.1-1.4,9.5-12.9,16.3-25.8c16.5-30.9,18.4-20.6,18.3-32.2c-0.1-11.9,9.1-14.8,180.3-212.2 c44.5-51.4,58-64.8,65.3-64.8c22.7-0.3,164.5-206.9,164.8-207.4c18.4-27.3,48-58,47.9-65.6c-0.1-5.5,8.7-8.6,21.3-28.2 c49.3-76.6,85.4-113.8,95.6-134.7c8.1-16.6,19.5-24.2,54.5-71.8c25.6-34.9,46.1-44.8,43-20.7c-1.1,8.8-43.2,70.2-64.2,93.8 c-4.8,5.4-8.7,11.9-8.6,14.6c0,3.3-245,328.2-245.2,328.6c-27.2,49.6-89.3,120.2-103,117c-19.5-4.6-56.8,58.4-36.4,37.5 c6.1-6.3,14.6-6.1,14.7,0.3c0.3,22.9-152,202-164.8,224.9C-353.1,3022.7-414.7,3066.5-428.2,3042.1L-428.2,3042.1z M-351.3,2965.4 c102.7-114.3,106.3-140,81.3-108.7c-29.9,37.4-32.3,30.3-104.7,127.1c-11.6,15.6-9.3,21.5,2.6,6.4 C-371.4,2989.3-351.7,2965-351.3,2965.4z M-227.5,2814.7c59.7-69.7,43.4-74.2,27.8-47.8c-14.8,25.1-53.1,59.8-53,67.8 C-252.6,2840.8-244,2834-227.5,2814.7z M997.8,3015.2c-15.4-7.3-1-19.3-11.6-25c-9.9-5.4-9.4-44.6,0.6-46.2 c9.3-1.4,14.1,6.9,23.4,41.1C1024.3,3036.9,1001.1,3015.2,997.8,3015.2z M1394,2977.3c-13.8-26.4-10.4-9.3-34-54.2 c-32.6-61.8-32.7-36.5-47.4-83.6c-7.3-23.3-27.4-32.7-27.5-41.5c0-3.4-3.7-5.7-8.8-5.7c-8.1,0.1-12.8-5.1-28.6-31.3 c-5.7-9.5-63.3-91.2-75.8-110.6c-30.8-47.9-38.4-74.4-15.8-55.2c8.3,7.1,0-8.7-18-34.3c-10.1-14.3-2.8-10.2-19.3-34 c-23.4-33.7-36.3-61.4-29.7-64.1c9.8-3.9,41.1,32.1,41.3,47.5c0.1,7.7,14.5,21.4,27.8,47.1c4.9,9.5,13.1,22.2,18.2,28.2 c11.6,13.5,12.4,25.7,1.7,25.8c-21.3,0.3,8.5,23,23.7,52.4c10.2,19.8,17.5,25.9,13.7,11.4c-7.8-29.5,18.6-5.5,43.7,39.8 c12.6,22.7,18.3,22,68.7,110.8c30.7,54,53.7,71.4,57,97.1c0.8,6.2,6.7,15.9,13.1,21.8C1441.5,2984.5,1416.2,3020,1394,2977.3 L1394,2977.3z M1238.9,2715.7c-7-14.7-13.3-20.3-13.2-11.7C1225.9,2711.1,1258.6,2757,1238.9,2715.7z M905,2976 c-8-4.8-15.4-35.1-10-40.5c6.2-6.3,14.2,3.8,18,22.9C918.1,2983.9,904.3,2976,905,2976z M-146.4,2970.2c-0.1-11,10.1-5.2,34.8-51.5 c53-99.3,108.7-183.8,117.7-178.4c5.8,3.5,4.4,19.7-2.1,25.2c-13.4,11.4-86.7,152.1-88,152.7c-4.2,1.9-27.6,37.1-27.6,41.4 c0.1,6.9-14,16.6-24.3,16.7C-147,2976.4-146.8,2970.2-146.4,2970.2z M380.2,2943.2c-0.1-9.2,1.6-12,7.3-12c6.2-0.1,7,1.7,4.8,10.3 C388.4,2956.6,380.4,2957.7,380.2,2943.2z M1376.6,2715.4c-5.1-3.1-1-5-42.9-70.2c-41.3-64.3-31.1-57.4-34.7-59 c-13.6-5.8-35-53.2-24.1-53.3c7.1-0.1,26.6,19.7,26.7,27c0.1,9.3,10,11.4,13.6,24.9c1.4,5.2,4.4,9.5,6.7,9.4c4,0,3.7-2.5-3.2-26.1 c-2.7-9.4,2.7-11.7,9.2-4c4.3,5.1,45,80.9,96.1,179.1c43.4,83.4,90.8,143.1,90.9,156.8C1515.4,2943.3,1384.2,2720,1376.6,2715.4z M1521.1,2892c-3.9-9.7,17.3-15.1,11.7-0.2C1530,2899.5,1524.1,2899.6,1521.1,2892L1521.1,2892z M-491.3,2898.5 c-22.8-22.3,22-55.7,186.8-229.7c32.9-34.7,62.6-63.2,66.1-63.2c9.6-0.1,7.5,9.9-5.1,24.7c-12.7,14.8-14.1,20.2-6,23.2 c6.3,2.3,32.9-24.9,149.2-128c15-13.3,49.6-12.4-19.9,44.5c-26.5,21.8-191.2,171.7-191.6,172 C-495.9,2901.1-478.8,2910.7-491.3,2898.5L-491.3,2898.5z M-274.5,2681.7c-3.6-3.5-22.5,13.9-22.4,20.8 C-296.8,2712.7-272.2,2683.9-274.5,2681.7z M41,2847.9c-3.3-3.2,3.6-26.2,9.3-30.8c2.6-2.2,5.1-7.4,5.6-11.7 c2.9-30.1,10.9-43.7,20.2-34.5c4.8,4.7-2.6,33-10.2,39.1c-3.3,2.6-6.2,7.9-6.6,11.7C57.3,2843.7,49,2855.7,41,2847.9L41,2847.9z M1564.3,2643.9c1.2-5.2-1.1-11.7-6.1-17.4c-10.2-11.5-9-13.4-5.4,4.1c3.5,17.5,6.3,16.6-11.6,0c-17.2-15.9-20.1-27.8-4.3-17.8 c13.6,8.7,7.8-2.4-9.9-18.8c-12.2-11.4-16.3-25.2-7.4-25.3c5.9-0.1,25.9,19.8,55.7,55.5c33.4,39.9,59.1,63.2,81.7,90.7 c39.6,48.3,77.6,76,69.8,85.7c-8.1,10-12.2,7.2-60.5-41.1C1666.3,2759.8,1560.9,2658.4,1564.3,2643.9z M2067.4,2775.3 c-0.1-5.4-25.3-9.1-37-19.2c-12.9-11.1-23.2-10.8-49.2-34.8c-0.7-0.7-489-370.2-489.4-370.4c-11.7-7.2-14.5-18-4.8-18.1 c8.6-0.1,49.4,36,86.6,60.4c33.5,22,26.5,27.8,64.8,52.8c34.8,22.7,246.6,185.2,272.5,203.7c7,5,88.1,64.3,96.7,64.2 c14-0.2-140.1-120.5-181.7-156.4c-69.2-59.9-378.1-270.7-326.9-271.3c14.3-0.2,26.6,22,85.2,64c10.7,7.6,115.5,92.1,127,98.4 c6.1,3.3,343.6,255.5,343.9,276.4c0,3.8,7.1,13.1,15.7,20.7c18.9,16.6,22,33.1,6.2,33.3C2069.2,2778.9,2067.5,2776.3,2067.4,2775.3 z M-570,2781.4c-20.7-8.1,25.6-41.7,25.5-50.8c-0.1-7.9,8.8-1,57.7-49.3c53.4-52.8,49-41.8,108.7-103.5 c39.7-41,102.6-81.2,210.4-196.8c28.9-30.9,30.9-32.1,37-21c8.4,15.2-228.1,242.6-251.7,252.4c-22.3,9.2-24.8,29-50.8,50.4 c-91.3,75.2-129.2,121.7-131.2,120.8C-564.9,2783.5-569.6,2781.4-570,2781.4z M1709,2640.1c7.4-4.7,0.9-12.6-43.1-52.4 c-58.6-53-137.6-130.5-156.6-143.1c-24.7-16.4-35.3-27.9-31.6-34.1c6.9-11.3,18.1-2.6,123.3,95.6c74,69,220.3,198.9,240.4,222.5 c7.6,9,1.5,18.2-12.2,18.3C1810.7,2747,1697.7,2647.3,1709,2640.1z M-606.3,2742.8c-0.3-20.8,30.1-37.8,88.2-85.3 c43.4-35.5,70.7-52,74.9-45.4c6.3,10-101.4,90.5-134.5,125.4C-608.5,2770-606.9,2741.7-606.3,2742.8z M334.8,2717.8 c-0.3-26.5,26-28.3,14.9-4.8C343,2727.2,335,2729.8,334.8,2717.8z M96,2701.3c5.4-37.2,51.3-110.3,51.6-82.2 c0.1,10.3-38.3,86.6-39.3,89.8C103.2,2725.8,93.4,2719.7,96,2701.3L96,2701.3z M-458.1,2450.5c18.9-17.8,32.2-27.5,35.8-26.2 c7,2.6,3.3,10.8-10.9,24.5c-17,16.3,2.4,8.8-36.7,41.2c-42.6,35.3-10.8,16.3-54.6,52.1c-21,17.1-26,23.1-20.6,24 c4.1,0.7,12.3-3.8,19.4-10.8c22.1-22,20.1-12.2,138.5-110c36.5-30.2,51.8-38.2,52-27.1c0.1,8.6-75.8,71.8-106.8,88.9 c-9.6,5.3-39.8,35.7-43.3,35.7c-3.5,0-45.6,42.9-51.9,43.1c-5.6,0.2,2-0.7-35.8,27.6c-98.5,73.6-95.5,94.4-113.1,75.4 C-686.5,2658.7-741.9,2718.2-458.1,2450.5z M405.7,2652c-7.5-11.8,13.6-59.4,20.1-79.2c14.2-43.6,35.7-15,14.8,28.2 c-3.5,7.2-6.3,15.4-6.2,18.3C434.5,2634.4,411.3,2660.9,405.7,2652L405.7,2652z M1066.7,2623.8c-7-6.8-2.4-13.2-10.1-24.4 c-10.7-15.6-15-40.3-53.3-115.9c-18.3-36.2-20.5-49.7-7.9-49.8c8-0.1,17.6,16.2,37.5,63.5 C1050.4,2538.4,1107.7,2663.7,1066.7,2623.8L1066.7,2623.8z M1503.3,2593.9c-13-15.3,15.5-8.9,15.6,0.2 C1519,2601.4,1509.6,2601.3,1503.3,2593.9L1503.3,2593.9z M1735.8,2358.6c-111.2-74.8-213.5-120.1-213.7-131 c-0.1-7,14.9-4.2,29.5,5.5c7.9,5.2,16.6,9.5,19.3,9.4c6.7-0.1,392.4,239.3,400.8,239.2c14.7-0.2-40.2-30.2-60.4-46.4 c-2.2-1.8-103.4-71.7-108.5-71.7c-4.3,0.1-52.3-26.4-61.1-33.7c-7.2-5.9-67.2-32.4-58.9-40.9c1.7-1.7,7.8-0.4,13.6,3.1 c33.6,19.9,75.8,40.9,82,40.9c0.4,0,253.5,156.7,288.5,191.1c36.6,35.9,22.5,46.1-23.2,16.8 C2045.3,2538.4,1814.1,2411.3,1735.8,2358.6z M1219.5,2422.9c-8-5.7-3.9-17.2,6-17.3c18.2-0.2,105.8,166,71.1,128.4 C1296.7,2538.3,1228.5,2429.3,1219.5,2422.9z M117,2540.9c-3.9-9.7,29.7-73.7,38.8-73.8c15.8-0.2,8,29.5-17.9,69 C124.4,2556.5,116,2541,117,2540.9z M-115.5,2503.1c-1.5-2.3,1.4-7,6.4-10.6c18.9-13.4,49.3-45.4,49.2-51.9 c-0.1-11.5,10.7-17.9,18.1-10.7c12,11.7-2.9,32.2-49.9,68.3C-114.1,2515.5-114.2,2501.7-115.5,2503.1z M368,2456.9 c-3.5-8.8,6.9-34.8,14.6-36.4c8.2-1.7,12.1,12.3,7.9,28.2C386.9,2462,372.1,2467.4,368,2456.9z M-325.3,2418.5 c-14.7-10.5,9.3-14.2,53.8-51.3c16.3-13.6,28.5-17.1,28.6-8.1c0.1,4.7-37.2,37.8-54.2,48.1C-316,2418.6-313.7,2426.8-325.3,2418.5 L-325.3,2418.5z M-820.6,2414.2c-5.9-15,4.3-22.9,66.3-51.4c99.6-45.8,108.9-57.9,157.8-84.3c12.1-6.5,19.4-5.1,19.5,3.9 c0.1,7.2-38,36.4-69.1,52.9c-38.2,20.4-44,27.9-47.4,27.9c-2.7,0-82.5,39.8-85.8,39.8c-1.3,0-6.7,3.6-12.1,7.9 C-802.4,2419.7-817.7,2421.4-820.6,2414.2L-820.6,2414.2z M-546.1,2382.1c-26.6-26,125.2-82,153.9-108.8 c10.5-9.8,8.8-2.9,28.8-16.8c15.1-10.5,24.1-12.5,28.3-6c4.2,6.6-3.7,13.1-47.1,39.1c-60,35.9-62.7,39.4-87,51 C-502.3,2356.3-536.7,2391.3-546.1,2382.1z M1370.5,2348.8c-28.4-30.4-30.8-33.7-26.8-37.9c2.8-2.8,7.5-1.3,15.3,5 c24.1,19.2,41.6,22.4,39.9,34.8C1396.7,2367.9,1374.8,2357.1,1370.5,2348.8z M-407.3,2375.4c-11.7-18.5,134.5-113.5,159-135.7 c16.8-15.2,58.2-41.6,65.6-41.6c18.2-0.2,7.7,20.8-17.1,34.1c-12.6,6.7-97.7,68.7-156.9,114.3 C-398.5,2378.6-403.4,2381.5-407.3,2375.4L-407.3,2375.4z M1897.5,2310.8c-1.5-9.3-10.3-14.1-20.7-11.4 c-12.5,3.3-133.6-53-133.7-62.1c-0.1-7.9,22.1-2.1,41.5,10.9c22.9,15.3,24.6,8.5,31.6,15.4c7.6,7.4,18.4-1.8-73.4-49 c-30.4-15.6-70.1-42.8-89.8-52.4c-15.1-7.4-27.3-16.9-27.4-21.2c-0.1-10.1,16.7-4.2,57.3,20.2c58.6,35.2,63.8,37.3,70.5,43.3 c7.8,7,7.5,0.2,28.2,16.1c19.9,15.4,7.5,4.2,55.8,31.9c90.6,51.8,143.3,68.7,127.5,88.2C1951.5,2357.4,1899.6,2324,1897.5,2310.8z M929.9,2285.4c9.6-6.1,18.8,2.7,25.4,24.4C983.3,2401.9,918.1,2292.9,929.9,2285.4z M-227.1,2335.7c2-10.6,17.8-19.5,20.9-11.8 C-200,2339.5-229.5,2348.8-227.1,2335.7z M775.1,2321c-0.9-8.7,2.1-11.8-3.5-21.9c-2.9-5.2-2.9-10.8,0-18.4 c11.5-30.7-1.8-181,11.9-186.2c13.8-5.3,16.5-22.3,6.2-37.7c-5.5-8.2-5.5-9.6,0.1-15.4c11.4-11.7,32.7-6.1,32.9,8.7 c0,3.3,3.8,8.3,8.4,11.1c9.6,5.8,8.3,5.7,5.8,113.4l9.2-2.4c9.3-2.4,17,8,17.1,23.2c0.1,8.7-11.9,11.7-17.4,4.3 c-5.3-7.1-15.7-8.8-11.3-1.9c8.3,13.1,5.8,43.2-3.3,39.8c-9.5-3.5-2.5-124.2-8.3-127.7c-4.2-2.5-8.4,14.2-7.3,29.2 c2,26.9-8.9,60.3-13-3.3c-1.6-25.1-8.3-49.5-10.6-38.5c-3.4,16.2-1.8,96.3,2,105.3c4,9.2,3.9,12-0.2,14.6 c-9,5.7,0.5,87.9-4.7,101.7C786,2326.7,775.9,2328.3,775.1,2321L775.1,2321z M749.8,2319.3c-7.5-4.5-4.5-166-9.5-191.3 c-2-9.8-1-15.2,3.5-19.8c14.4-14.7,15.6-6.9,16.5,102C761,2310.5,759.6,2325.3,749.8,2319.3L749.8,2319.3z M-795.1,2299.9 c-17.6-17.2,18.1-26,185.9-113.9c85.8-45,120.9-62.8,122.5-66.5c2.1-4.8,9.9,0.2,23.6-9.7c11.8-8.5,156.2-85.1,183.2-97.3 c40.4-18.1,85.5-42.1,88.5-47c4.8-8,21.1-4.2,21.2,4.9c0.3,24.2-194.7,90.7-234.2,128.8c-19.3,18.6-34.7,27.4-60,34.3 c-48.1,13.1-204.6,111-295.8,157.5C-795.8,2309.2-792.3,2299.8-795.1,2299.9z M2071.2,2238.2c-81.1-39.6-52.6-22-82.1-35.4 c-99.5-45.2-69.6-26.5-129.2-50c-45.5-17.9-61.1-13-68.8-28.4c-2.7-5.5-10.2-11.5-16.7-13.5c-13.7-4.2-29.3-17-29.4-24.3 c-0.2-16.2,38.2,13.8,46.9,13.7c6.8-0.1,27.1,12.8,74.1,27.5c87.8,27.5,256.1,112.8,283,117.7c15.1,2.8,18.8,7.3,12.6,15.1 C2152.1,2272.5,2130.5,2267.2,2071.2,2238.2L2071.2,2238.2z M809.5,2278.2c-4.9-15.4-1.6-95.4,3.4-82.6c4.4,11.4,5,78.7,0.7,81.4 C810,2279.3,809.1,2278.2,809.5,2278.2z M842.5,2259.1c-5-7.8,1.9-27,9.7-27.1c10-0.1,6.2,8,10.2,22.2 C865,2263.4,848,2267.7,842.5,2259.1z M-438.8,2214.9c11.8-3.9,10.6,7.1-1.4,12.7c-6.6,3.1-9.3,7.2-8.6,13.1 c1.5,11.9-10.1,12.9-20.7,21.6c-7.2,5.9-49.7,6-49.8,0.1C-531.7,2262.6-454.3,2220-438.8,2214.9z M1393.7,2213.7 c-4.4,0.1-87.4-61.9-105.3-78.6c-19.6-18.3-16.6-7.6-34.1-25.3c-20.6-20.8-95.6-65.4-73.2-74.3c18.1-7.2,126.8,91.4,191.7,135.8 c37,25.4,53.5,40.4,51.5,46.9c-2.3,7.3-16.4,8.2-22.1,1.4C1401.8,2220,1397.5,2213.7,1393.7,2213.7z M1583.2,2210.1 c-15.2-9.9-20-25.6-7.9-25.7c9.1-0.1,31.8,17.5,31.9,24.7C1607.4,2224.9,1583.2,2209.7,1583.2,2210.1z M881.4,2114.6 c23.4-21.9,14.4-40-2.8-68.9c-9.5-15.9-7.8-37.4,3.4-45c9.2-6.2,24.7-35.8,24.6-46.9c-0.1-7-9.5-6.7-15.3,0.5 c-2.5,3.1-16.1,12.2-30.1,20.1c-27.7,15.7-23.8,15.3-99.5,8.6c-27.7-2.5-56.2,6.9-48.4,16c8.8,10.3,25.7,14.3,41.5,9.8 c16.3-4.7,27.8,1.2,23.7,12.2c-3.4,9.1-39.2,12.9-56.3,6c-7.8-3.1-17.3-6.7-21-7.8c-9.6-2.9-4-15.8-13.8-26.5 c-12.4-13.4,11-29.9,44.2-31.3c115.2-4.7,70.4,20.1,120.6-13.9c57.2-38.7,58.4-70.8,3.1-86.1c-47.9-13.2-27.3-21-81.7-23.7 c-43.3-2.1-51.3-16.5-9.9-17.9c42.8-1.5,43.8-10.4,59.4,0.4c11,7.7,46.5,21.8,63.3,25.3c22.3,4.7,42.7,34.2,43,62.4 c0.1,4.8,1.9,9.8,4,11.1c6.9,4.2,4.9,41.9-3.2,58.2c-10.1,20.4-6.4,25.3-10.6,25.3c-3.5,0-13.4,18.8-20.3,31.5 c15.4,26.5,39.3,62.3,5.6,91.4c-12.8,11-16.1,27.6-4.6,22.7c16.8-7.2,12.2-1.8,44.9-20.8c30.2-17.6,54-7.5,38.2,16.2 c-5,7.6-63.3,30.3-73.2,28.5c-9.7-1.7-11.1,10.6-3.2,28.3c6.2,13.8-29.1,28.6-36.4,15.2C861.7,2211.1,866.2,2128.9,881.4,2114.6z M1657.6,2195.7c-29.8-14.3-47.8-31.3-33-31.2c9.3,0.1,69.2,34.6,68.8,39.6C1692.7,2211.1,1686.8,2209.7,1657.6,2195.7 L1657.6,2195.7z M-420.6,2228.5c-4.3-6.8,124.8-80.5,127.8-88c0.7-1.7,3-3.1,5.2-3.2c3.8,0,16.2-9.3,65.2-48.3 c25.4-20.2,35.4-23,41.8-11.4c6.7,12.2,0.8,19.4-26.1,31.9c-47,21.9-87.7,56.3-104.3,64.2C-324.1,2180.1-415.1,2237.1-420.6,2228.5 L-420.6,2228.5z M1471.1,2188.2c5.2-5.3,31.3,7.3,31.4,15.1C1502.7,2218.2,1462.8,2196.7,1471.1,2188.2z M1006.2,2153.9 c-8.8-12.9-16.1-24.7-16.1-26.3c-0.1-4.2-44.1-57.7-44.9-66.7c-2.6-29.6,44.4,40.7,58.6,48.2c15,7.9-1.1,9.4,24.9,48.3 c17.9,26.7,19.7,38.5,6.3,40.6C1022,2200,1032.5,2192.2,1006.2,2153.9z M1073,2168.6c-8.1-3.2-6.4-24.5,2-24.6 c10.2-0.1,20,18.3,12.4,23.3C1081.2,2171.3,1080.1,2171.4,1073,2168.6L1073,2168.6z M2161.7,2095.5c-82-26.4-143.1-28.5-149.9-40.9 c-5.3-9.5-15.2-11.8-21.9-4.9c-3.3,3.4-8.4,5.2-11.3,4.1c-11.2-4.1-53.3-7.5-65.5-14.8c-35.1-21.2-126.2-23.3-126.3-34.3 c-0.2-12.6,35.1,2.7,81.5,9.8c30.2,4.6,42.7,9.3,42.7,3.5c-0.1-6.8-17.2-0.9-22.5-10.1c-1.9-3.3-9.5-7.5-16.8-9.3 c-36.8-9-98.7-29.2-99.9-32.8c-7-20.1,104.1,27,148.6,34.3c25.3,4.1,41.4,16.7,21.7,17c-10,0.1-13.7,6.8-5,9.3 c51.4,14.4,69.8-16.9,112.5,11.8c19.7,13.2,47.6,15,82.7,25.1c73.3,21,85.9,18.4,90.7,35.8 C2228,2117.2,2161.3,2096.1,2161.7,2095.5z M127.1,2122c-5.9-2.3-6.7-12.9-0.9-12.9c2.2,0,11.9-8,21.5-17.7 c18.9-19,20.6-19.9,27.2-13.5C193.2,2095.9,140,2134.6,127.1,2122z M1707.9,2085.9c9.6-0.1,19.8,8.3,15.4,12.8 c-3.3,3.4-18.6,3.5-21.9,0.2C1701.4,2101.3,1692.3,2086.1,1707.9,2085.9z M-786.6,2083.8c47.7-12.2,191.6-57.9,215.9-68.7 c51-22.5,131.6-43.4,146.6-48.5c105.2-35.4,91.5-9,14.6,7.6c-22,4.8-13.5,20.1-30.1,16.1c-17.1-4.1,3.6,7-45.8,15.8 c-22.5,4-30.7,13.9-49.7,14.1c-19.8,0.2-13.3,9.9-40.3,13.1c-28.9,3.4-78.9,24.5,14.5,4.5c28-6,52.1-9.7,53.6-8.2 c4.4,4.4-14.8,15.3-35.6,20.2c-161.8,38.1-159,43.9-185.6,48.7c-8.5,1.5-19.8,5-25.1,7.8c-29.5,15.3-87.2,23.2-91.4,12.6 C-845.4,2119.4-860.4,2102.6-786.6,2083.8z M-669.2,2067.8c14.7-5.6,6.5-8.1-10.7-3.2C-704.1,2071.4-709.3,2083.1-669.2,2067.8z M-620.6,2052.4c3-5-12.3-5.1-15.5,0.2C-639.1,2057.6-623.7,2057.6-620.6,2052.4z M310.6,2102c-16-14.6-15.6-28.9-35.4-40.8 c-17.2-10.4-29.8-32.4-23.9-42.1c3.2-5.3,2.9-8.7-1.2-14.2c-10-13.4-2.2-18.8,13.5-9.3c7.6,4.6,42.4-13.7,42.7-22.5 c0.2-5.6,25.7-30,35.5-46c9.7-15.6,27.7-12.8,19.1,2.9c-6.1,11.2-44,48.7-49.3,48.8c-6.9,0.1,4.6-2.1-33.2,34.5 c35.1,43.2,31.5,45.2,57.8,19.8c18.8-18.2,28.7-22.4,28.9-12.2c0.1,4.2-34.1,37.5-47.4,50.8l10.9,11.1 C347.7,2102.4,330.7,2120.3,310.6,2102L310.6,2102z M1023.2,2091.3c-4.4-6.9,2.9-25.1,13.2-33.2c6.2-4.8,17-13.6,24-19.6 c17.8-15,26.7-9,24.2-15.8c-3.8-10.2,4.8-18.9,17.6-17.9c12.7,1.1,14.5-2.6,8.4-16.9c-4.5-10.5,20.8-27.1,20.7-34.2 c-0.1-9.4,26.9-20.5,36-57.3c7.6-30.9,22.5-46.2,19.4-53.8c-2.2-5.6,8.4-17.8,15.6-17.9c3,0,2.9-3.9,0-13.2 c-9.7-30.3,12.2-29.1,12.3-19.6c0,3.3,1.8,4.9,3.9,3.6c6.1-3.8,4.3-25.2-2.3-27.6c-12.5-4.6-6-52.3,7.7-57 c18-6.2,42-41.4,26.7,55.5c-5.9,37.2-7.4,42.7-25.5,91.1c-14.9,39.9-9,54.3-32,75.9c-16.5,15.5-7.5,18.2-91.8,114.5 C1061.6,2093.4,1023.4,2102.9,1023.2,2091.3z M1311.1,2024.3c-0.7-1.8-3.5-3.2-6.1-3.2c-5,0.1-21.9-15.6-21.9-20.3 c-0.2-13.2,132.8,59.5,135.8,74.3c2.1,10.1-17.7,8.2-36.2-3.5C1383.1,2072,1312.9,2028.6,1311.1,2024.3z M-134.3,2034.8 c6.1-0.1,36.3-23.7,40.1-23.7c8.4-0.1,67.3-45.4,67.2-51.7c-0.2-12.5,16.5-3.2,30.4-12.1c9.3-5.9,19.8-1.9,19.9,7.6 c0.1,8.6-25.3,24.9-118,75.9c-37.1,20.4-49.9,24.2-45.9,13.5C-137.6,2041.1-141.3,2034.9-134.3,2034.8z M20.4,2030 c-0.1-7.2,27.6-24.6,39.2-24.7c16.8-0.2,11.4,14.6-9.2,25.2C39.7,2036,20.5,2041.1,20.4,2030z M83,1990.9 c-2.8-7,14.2-24.7,23.9-24.9c7.9-0.1,7,6.1-2.6,19.6C88.6,2007.4,82.7,1990.9,83,1990.9z M214.2,1989.3c1.5-8.4,16.1-13.7,14.1-2.9 C226.9,1994.8,212.3,2000.1,214.2,1989.3z M183.8,1962.7c2.9-7.8,18.9,0.7,21.1,11.3C207.7,1986.7,177.8,1978.9,183.8,1962.7z M-303.9,1978.5c-3.5-5.5-2.3-6.3,14.6-9.7c17-3.4,20.4,3.6,4.7,9.8C-297.3,1983.6-300.7,1983.6-303.9,1978.5z M228.9,1970.9 c-0.1-9.3-14.8-4.2-28.5-32.2c-6.9-14.2-11.3-18.6-19.1-19.4c-10.7-1.1-17-35.5-7.7-41.4c4.2-2.7,15.7-24.3-40.5,13.7 c-36.8,24.8-47.7,29.7-50.6,22.5c-3.2-8.1-0.5-11,20.3-21.6c27.5-14,36.4-25.2,52.2-31.4c6.8-2.7,10.6-7,10.5-12.1 c-0.1-12.1,11.4-14.6,20-4.2c13.2,15.8-6.7,15,2.9,24.3c7.1,7,1.7,13.4,10.5,19.8c9.5,6.9,19.4,47.3,26.2,54.2 c2,2,3.6,6.8,3.7,10.6c0.1,10.2,10,8.4,19.1-3.5c41-53.5,103.5-107.3,103.8-89.4c0,1.3-25,27.7-55.5,58.8 C224.9,1991.8,232.9,1974.9,228.9,1970.9z M1383.1,1943.7c-68.8-31.5-93.3-28.2-93.6-46.9c-0.1-12,44-1.8,79.8,18.5 c6.5,3.7,16.3,7.8,21.8,9.1C1423.8,1932.2,1442.8,1971.1,1383.1,1943.7L1383.1,1943.7z M2330.2,1932.8 c-37.8-12.2-47.1-7.4-50.5-12.8c-1.3-2.1-6.5-3.8-11.4-3.7c-11.3,0.1-20.8-9.9-14.9-15.9c4.4-4.5,69.9,0.6,94.7,7.4 c34,9.3,69-7.9,69.5,33.8C2342.5,1941.6,2329.8,1932.8,2330.2,1932.8z M1009.1,1900.7c9.6-0.1,36.7,22.6,36.8,30.9 C1046.2,1956.1,981.7,1901.1,1009.1,1900.7z M1619.2,1926.3c-27.9-7.2-38.9-12.5-39-18.9c-0.1-7.9,15.4-7.5,42.6,1 C1656.7,1919,1653.5,1935.1,1619.2,1926.3z M-213.4,1925.3c-0.1-7.9-13.5-1.7,107.4-33.6c99-26.1,112.2-28.5,105.8-19.2 c-7,10-172.8,56.9-206.3,58.3C-214,1931.2-212.9,1925.1-213.4,1925.3z M-678.3,1929.2c-10-6.6-31-0.4-31.1-9.2 c-0.2-13.7,177.1-34.8,224.1-49.6c24.6-7.7,91.1-16.5,121.1-22.9c38.2-8.1,61.9-5.9,59.2,5.4l-2.4,9.9c63.1-3,64.3-1.6,62.8-11.7 c-1.7-11,12.9-12.5,16.5-1.8c1.7,5.2,5.7,6.8,14.9,6.1c14.8-1.1,31.4,4.1,28.4,9c-1.1,1.9-19.1,4.8-39.9,6.5 C-424.9,1887.4-662.3,1939.7-678.3,1929.2L-678.3,1929.2z M-536.2,1900.1c74.1-12.5-19.3-7.3-45.3,3.1 C-592.5,1907.6-619.2,1914.1-536.2,1900.1z M-450.2,1885.2c0-1.8-38.6-2.1-32,2C-477.6,1890.1-450.2,1888.3-450.2,1885.2z M-415.4,1879.4c9.8-6.4-48.2,4.5-17.1,4C-423.9,1883.3-415.4,1880.1-415.4,1879.4z M-373.8,1872.3c-9-2.2-29.6,1.9-8.7,1.8 C-367.2,1874-373.8,1872-373.8,1872.3z M-330.3,1866.7c-0.1-9.8-38.1,4.2-12.5,4C-335.9,1870.6-330.3,1868.9-330.3,1866.7z M1471.5,1889.4c-139.2-38.8-201.5-33.3-186.5-58.2c5.2-8.7,1.1-3,186.3,39.5c34.1,7.8,45,11.8,46,17 C1520,1900.9,1470,1890.5,1471.5,1889.4z M1897.5,1867c-16.1-1.5-21.6-3.7-22.7-8.8c-1.5-7.6,28.5-10.4,41.2-3.8 c10.6,5.5,80.1-4,17-9.6c-22.1-1.9-181.1-29.4-216.4-31.7c-17.3-1.1-173.9-14.1-234.7-26.2c-59.6-11.9-64-6.3-64.1-17.1 c-0.3-24,82.7,6.7,205.5,16.9c11.9,1,238.8,22.8,248.3,29.8c19.1,14.1,119,2,104.1,48.2C1972.9,1873.4,1892.7,1867,1897.5,1867z M654.6,1786l2.3-18.6l-18.7-9.5c-40.9-20.7-58.6-116.3-20.7-111.3c7.8,1,8.5,3.3,8.8,28.2c0.2,14.9,2.1,27.5,4.2,28 c5.7,1.4,1.5-43.5,8.2-56c8.8-16.5-2.5-73.5,21-70.4c10.8,1.4,10.2,47.3-1.1,85.9c-10,34.2-1.6,76.1,15.3,75.9 c15.2-0.2,22.9-24.1,10.6-32.8c-5.4-3.9-5.6-7.3-1.5-28.4c8.6-44.3-11.9-59.8-0.8-67.2c9.2-6.1,16.9-2,18.3,9.6 c1.5,11.9,11.4,29.2,16.6,29.2c8.2-0.1,8.1-50.7-0.2-59.3c-6.5-6.7-20.9-68.2-21.2-90.3c0-3.4-45.4,7.1-23.8-37.8 c20.5-42.5,18.6-61.5,34.8-63.6c12.1-1.5,17.9,9.6,11.5,22c-2.2,4.2-3.9,11.8-3.9,16.9c0.2,16.1-15.9,18.7,3.3,18.4 c28-0.3-7.9,13.5,39.9,78.8c24.1,32.9,38.6,131.9,26.2,179.4c-7.5,29-47.3,67-70.5,67.2c-9.3,0.1-16.1,9.2-11.9,15.9 c1.2,1.9,3.2,13.5,4.3,25.7c3.6,37.4,11,42.7-10.7,51.3c-15.9,6.3-20.5,5.4-29.1-5.2C666.1,1873.3,648.7,1833.4,654.6,1786z M707.8,1757.2c-3.7-13.6,24.4-31,19.4-42.4c-6.8-15.6-6.1-22.1,3.5-31.3c12.6-12.1,12.5-17.4-0.3-14.1c-5.6,1.5-12.4,0.7-15.3-1.7 c-12.2-9.9-18.9,18.3-8.3,34.9c3.8,5.9,3.3,11.6-2.2,28.5C691.7,1770.4,711.5,1770.7,707.8,1757.2z M751,1647.2 c6.8-8.4,8.5-51,2.3-59.3c-9.4-12.5-5.5,24.7-11.6,55.5C739.9,1653,744.7,1654.9,751,1647.2z M1632.7,1837.6 c3.5-2.2,43.7,3.4,47,6.6C1695.9,1860.1,1613.1,1849.7,1632.7,1837.6z M251.4,1809.3c10-0.2,6.9,11.7-4.1,15.9 C231.6,1831.2,229.8,1809.8,251.4,1809.3z M297.7,1821.4c-9.1-3.2-5-13,7.5-18.4c24.9-10.5,29.8-11.2,32.5-4.4 c2.9,7.2-4.2,13.3-15.6,13.6C310.7,1812.4,305.2,1824,297.7,1821.4z M132.7,1796.1c19,14.7-49.9,8.5-101.4,21.6 c-30.8,7.8-52.2,8.2-52.3,0.9C-44.4,1807.3,122.3,1788.1,132.7,1796.1z M-953.2,1822.6c-48.1-40.3,67.4-24.7,478.7-22.5 c100.4,0.5,105.4,0.8,103.8,6c-1.1,3.5-18.3,5-63.9,5.6c-86,1.2-37.5,6.3-149.5,6C-953.3,1816.5-931.8,1840.6-953.2,1822.6 L-953.2,1822.6z M-356.5,1766.8c-3.6-5.7,1.6-7.5,26.8-8.9c18.1-1.1,23.2-0.1,23.2,4.2C-306.3,1768.6-352.5,1773-356.5,1766.8z M2170.1,1733.3c-7.3-7.1-232.2-9.5-240.6-17.6c-6.2-6.1,0.8-13.1,10.7-10.7c5,1.2,10.1,0.4,11.4-1.8c3.4-5.7-19.7-1.7-23.6-7.9 c-3.6-5.6,5.8-11.3,15.6-9.6c14.6,2.6,57.1,9.2,62,13.5c5.4,4.7,28.6,3.7,43.6-1.9c27.2-10.2,11.6,10.7,71,5.4 c49.2-4.4,134-0.5,175.5-7.7c33.3-5.8,30.1-4.7,65.3,11.3c-5.4,8.8-10,16.3-15.5,25.1C2153.9,1735.1,2170.5,1733.2,2170.1,1733.3z M90.6,1753.7c-0.1-8.6,32.7-12.6,30-3.9C118.8,1755.5,90.7,1759.2,90.6,1753.7L90.6,1753.7z M138.9,1743.8 c-13.7-14-18.8-62.8-6.6-62.9c3.7,0,6.3,4.4,7.2,12.3c1.1,10,3.2,12.5,11.4,13.4c10.6,1.1,24,31.6,19.5,44 C164.8,1765.7,136.5,1743.9,138.9,1743.8z M1577.8,1709.7c-18.6-1.5-21.2-3-18.4-10.6c2.3-6.2,42.1-5.7,206.1-7l0.2,18 C1531.8,1717,1626.8,1713.6,1577.8,1709.7z M1267.6,1690c-0.1-6.2,21.6-7.9,30.5-2.4C1315.5,1698.3,1267.8,1707.1,1267.6,1690z M1364.6,1696.3c-23.7-3.6-27.2-5.2-27.3-12.7c-0.1-8.8,25.5-11.3,44.5-4.3C1403,1687,1389.8,1700.1,1364.6,1696.3L1364.6,1696.3z M1231.9,1672.6c-18.1-18.3-15.8-14.6-13.8-67c-91-4.3-95.6-4.3-94.3-13.7c1.4-10.5,23.8-18.8,51.5-19.2 c27.4-0.4,30.8-3.2,24.8-20.8c-6.1-17.7-3.2-26.9,7.3-23.6c5.5,1.7,7.8,0.6,7.7-3.7c-0.1-4.5-4-6-14.9-5.9 c-28.3,0.3-25-13.3,4.3-17.6c32.1-4.7,34.1-8,166.9-34.3c100.1-19.8,131.4-31,136-19.4c7.9,19.9-36.1,19.6-151.2,42.2 c-24.6,4.8-101.9,20.7-117.7,20.9c-13.6,0.2-16.3,9.8-3.9,13.6c4.3,1.3,7.8,5.6,7.9,9.6c0.1,10.8,7.8,7.7,8,21.3 c0.1,12.2,15,16,37.7,9.7c25.9-7.3,32.8-6.4,31.5,3.9c-1,8.1-3.9,9-37,12.5c-48.5,5.1-55.3,3.2-52.6-14.3 c2.2-14.9-7.1-19.8-12.7-6.6c-11.7,27.5-7,30.5,54.1,34.6c43.1,2.9,52.1,6.2,47.9,17.7c-2.5,6.7-29.5,7-45.4,0.6 c-5.3-2.2-6.5,2.3-8.2,31C1263,1692.8,1256.9,1698,1231.9,1672.6L1231.9,1672.6z M-264.6,1695.4c-140.6-11.5-474.6-2.3-474.9-23.7 c-0.2-13.3,395,4.9,526.2,7.3c13.8,0.3,21.4,10.1,12.3,16.1C-210.6,1701.2-265,1695.6-264.6,1695.4z M1101.5,1675.1 c-33.4-5-30-19.9,4.3-19.2c27.9,0.6,41.4,4.5,41.5,12.2C1147.5,1685.8,1102.7,1673.8,1101.5,1675.1z M-848.9,1676.5 c-34.5-0.8-37.8-1.5-37.9-8.5c-0.2-12.5,12.2-8.6,69.7-5.5C-731,1667-757.4,1678.7-848.9,1676.5L-848.9,1676.5z M120.4,1651.8 c-77.9-5.9-106.1,2.4-104-9.2c1.4-7.6,10.1-8.1,95.4-5.3c47.5,1.6,63.7,6.1,51.2,14.2C155.6,1656.3,159.4,1654.7,120.4,1651.8z M1584.4,1614.7c27.3-0.3,31.4,0.5,30.4,6.1c-2.8,15.6-64.9,24.3-72.7,10.1C1546.6,1630.9,1520.1,1615.5,1584.4,1614.7z M1419,1624.4c-8.9-3.4-8.8-13.1,0-16.4c6.2-2.3,52,2,55.3,5.1C1486.5,1625.1,1443.3,1633.9,1419,1624.4z M211.2,1635.4 c-4.1-6.5-32.9,0-33.1-16.4c0-4,25.6-1.2,45.6,5c16.1,5,17,14.9,1.4,15.1C218.8,1639.2,212.5,1637.5,211.2,1635.4z M1995.8,1607.8 c-11.6-8.1-12.2-9.4-6-12.7c19.5-10.3,58-8.2,70.4,3.9C2076.4,1614.7,2017.4,1622.8,1995.8,1607.8z M109.9,1609.5 c-47.1-7.5-57.4-24-13.7-15.3c30,6,29.1,6.4,27.6-13.9c-1.7-22.9,4.9-43.2,15-45.9c7.1-2,7.7-0.9,5.6,10.2 c-12.9,67.9,4.9,49.2,8.1,19.9c2.3-21.1,23.5-71.9,30-71.9c14.2-0.2,13.4,20-1.7,42.6c-11,16.5-19.5,70-11.1,69.9 c6.8-0.1,5.1,13.6-2.6,20.7c-9.1,8.5-10.7,8.3-20.4-2.5C146.7,1615.8,112.9,1609.9,109.9,1609.5z M-338.7,1584.6 c4.2-2.7,81.1,3.9,93.1,7.9c24.8,8.3-25,12.8-68.6,6.1C-312.3,1598.6-352.4,1593.4-338.7,1584.6z M1949.2,1506 c82.1-7.4,117.9-4.8,97.5,7c-22.9,13.2,30.9,12.1-77.7,25.2c-92.6,11.1-146.5,13.9-144.4,7.5c2-6.2,29.2-10.7,70.8-11.7 c33.8-0.8,128.9-15.1,110.7-16.6c-25.7-2.1-294.9,26.9-321.7,28.4c-143.8,7.9-156.7,23.2-154.2,9 C1632.4,1519.2,1764.7,1522.5,1949.2,1506z M1001.6,1557.6c-22.2-21.7,60.8-30.3,92.9-39.9c23.1-6.9,21.3-5.7,40.9,6.8 c-8.2,6.8-15.2,14.6-32.4,14.8C1074,1539.6,1001.7,1566,1001.6,1557.6z M-704,1566.2c-123.2-9.9-114.8-21.3-141.3-23.3 c-15.1-1.1-24.4-11.4-17.1-18.9c3.6-3.6,14.8-3,50.3,3c62,10.5,93.6,10.9,96.3,15.3c1.1,1.8,10.7,2.1,21.2,0.8 c15.6-2,19.6-1.3,21.7,3.9C-667.9,1559.5-681.6,1568-704,1566.2L-704,1566.2z M-160.5,1548.5c-20.3-11.5-34.8-16.7-46.3-16.5 c-32.9,0.4-87-18.1-78.4-26.9c9.9-10.1,148.4,26.5,148.5,39.3C-136.5,1555.7-160.5,1551.2-160.5,1548.5z M2060.8,1521.1 c-8.3-3.2-5.5-12.9,4.9-17c13.2-5.2,39.3-5.3,42.5-0.2C2116.1,1516.4,2081.1,1529,2060.8,1521.1L2060.8,1521.1z M2286.7,1507 c-2.1-5.3-10.2-6-57.6-4.7c-66.3,1.8-63.1,2.1-57-5.4c7.1-8.7,12.3-0.3,22.2-5.7c16.4-9,177.3-26.1,192.6-20.5 c27.8,10.3-2,38.8-38.5,36.9c-16.1-0.8-30.2,0-31.3,1.8C2313.3,1515.6,2289.3,1513.6,2286.7,1507L2286.7,1507z M-353.8,1527.1 c-20.8-8.9-39.1-3.4-68-14.8c-18.8-7.4-330.2-90-344-94.3c-58-18.5-258.1-44.6-243.9-82.9c3-8,16.8-8.3,35.4-0.8 c7.9,3.2,32.8,7.2,55.3,8.9c59,4.5,45.5,12,76.6,15.8c26.5,3.2,33.9,13.7,43.9,13.6c10-0.1,21.1,9.5,47,14.4 c28.2,5.4,48.1,16.7,65.9,15.6c9.6-0.6,12.6,0.8,12.7,5.9c0.1,5.2,1.1,5.7,4.7,2c4.8-4.9,32.8-6.7,43.4-2.8 c10.7,4,7.7,14.2-3.4,11.6c-8.3-2-9.7-1-9.6,7c0.1,12-1,7.5,83.7,29.7c21.2,5.5,223.8,56.3,226.8,70.7 C-324.7,1540-353.9,1527.6-353.8,1527.1z M-676.8,1417.7c-0.1-5.1-10.5-5-13.6,0.2C-693.4,1422.9-676.7,1422.8-676.8,1417.7z M-14.6,1496.9c-20.1-8.4-32.4-5.7-15.1,3.2c23.7,12.2,14.9,20.2-12.7,11.5c-63.1-19.9-115.7-48.1-70-37.4 c52.2,12.2,27.5-4.8-20.5-11.4c-10.6-1.5-16.5-4.3-16.6-7.8c-0.1-12.3,70.5,5.8,217.6,55.6c12.8,4.3,18.4,13.7,9.9,16.5 C72,1529.2-3.9,1501.4-14.6,1496.9z M-56.1,1483.7c-7.7-4.9-20.5-4.7-17.4,0.2C-70.6,1488.5-46.8,1489.5-56.1,1483.7z M1130.4,1501.5c1.6-8.7,45.4-24.4,93.7-43.9c48.7-19.7,72.2-34,79.1-21.6c5.5,10.1-15.8,21.3-56.5,29.9 c-6.8,1.4-16.3,5.7-21.2,9.5C1203.1,1492.8,1130.6,1514.5,1130.4,1501.5z M261.5,1485.8c-18.4-6.5-62.2-30.6-62-16.9 c0,2.1-3.6,3.9-8,4c-6.4,0.1-7.8-2-6.9-10.3c1-9.7-0.8-11.1-28.1-20.6c-117.3-40.8-131.6-46.8-125.9-52.7c3.9-4,13.2-1.7,53.7,13.4 c100.9,37.5,92.4,36.4,98.9,13.4c6.4-22.5,9.2-28.5,4.5-28.4c-5.5,0.1-74.7-41-170.2-88c-43.9-21.7-60.8-35.6-60.6-23.4 c0.1,10.4-41-6.7-54.5-22.6c-2.7-3.2-6.5-5.7-8.4-5.7c-10.5,0.1-72.6-50.4-186.7-106.4c-13.2-6.5-117.1-67.8-181.4-100.1 c-58.7-29.5-59.4-30-52.9-38.1c8.3-10.2,22-7.4,33.2,6.9c10.7,13.7,26.9,21.3,44.8,21.1c5.8-0.1,23.5,6.9,39.3,15.6 c103.4,56.3,177.9,90.4,194.6,109.3c25,28.2,341.8,177,413.2,231.6c4.2-8.6,11.5-24.3,17.8-31.6c4.9-5.7-85.6-70.6-127.2-91.2 c-19-9.4,7.9,2.9-62.4-37.2c-42.6-24.3-55.3-34.9-41.5-35.1c7-0.1,80.9,40.2,105.4,57.4c35.1,24.7,55.3,37.6,66.7,42.6 c6.6,2.9,18,10.3,25.4,16.4c53.7,44.7,126.6,71.4,82.1,71.9c-13.2,0.2-45,36.3-45.7,51.9c-0.1,2.7-2,4.9-4.1,4.9 c-20,0.2,7.6,18.9,42.7,28.8c19.8,5.6,30,13.7,25.9,20.6C280.1,1492.1,278.9,1492,261.5,1485.8L261.5,1485.8z M231.5,1379.3 c8.6-7.3,7.3-20.6-1.6-15.7c-8.4,4.6-33.4,45.2-36.9,60C184,1461.4,223.5,1386.1,231.5,1379.3z M-340.2,1095.8 c-22.6,0.3,68.9,42.5,57.9,31.9C-279.9,1127.7-336,1095.8-340.2,1095.8z M1167.9,1452c-0.1-7.9-4.8-19.8-12.2-30.6 c-20.5-30.2-8.9-55.4,20.6-44.4c14.6,5.4,32.8,62.9,18.5,58.6c-5.5-1.7-7.8-0.6-7.7,3.7c0.2,18.6,38.5-18.6,38.8,1.9 c0.1,4.9-17.7,6.3-30.3,16.3C1169.6,1477.9,1166.4,1452,1167.9,1452z M1933,1447.8c-6.2-9.7-3.4-10.6,121.6-36.7 c43.6-9.1,85.3-18.2,92.7-20.3c117.8-33.1,129.7-27.5,153.1-34.8c9.3-2.9,25.8,11.2,24.1,20.5c-1.8,9.7-93.7,35.9-106.3,41 c-16.6,6.7-60.1,5.3-0.8-14.8c60.2-20.3,45.1-21.9-29-3.1c-86.6,22-150.2,29.3-222.5,45.4C1932.5,1452.6,1936.3,1453,1933,1447.8 L1933,1447.8z M872.1,1423.7c14.3-21.2,21.6-27.1,28.2-23.1c15.9,9.5-19.5,64.7-35.8,55.8C864.4,1452,847.3,1460.2,872.1,1423.7z M991.1,1450.8c-10.2-16.1,106.3-67.3,145.5-109.2c-70.8-66.7-63.7-53.2-63.8-61.6c-0.2-16.4,64,28.4,71.1,49.5 c1.5,4.6,5.7,3.3,20.8-6.9c27-18.1,125.7-66,132-73.9c6.3-7.8,27-13.8,34.3-21.1c5.6-5.6,20-7.1,20-2.1c0.1,4.6-16.9,20.3-22,20.3 c-2.3,0-4.8,1.5-5.5,3.4c-2.9,7.6-58.7,32.2-91.8,60.6c-9.6,8.2-18.5,15-19.8,15c-3.7,0-58,35.1-60.4,39c-4.3,7-15,5.1-57.4,33.3 C1002.9,1457.9,997.5,1460.8,991.1,1450.8L991.1,1450.8z M357.1,1344.8c-13.7-15,23.7,2.8,41.9,20c48.7,45.8,75,62.5,75.2,75.9 c0.2,16.6-8.6,10.6-62.6-42.2C411.4,1398,359.4,1347.3,357.1,1344.8z M1529.1,1383.3c-2-1.9-8.9-4-15.3-4.7 c-18.8-1.8-17.5-13.3,2.6-22.2c27.7-12.3,59.5-18.7,66.2-13.3c3.8,3.1,12.2,3.6,25.3,1.7c37.2-5.4,28.9,14.1-10,23.4 C1551.1,1379.5,1539.3,1393.3,1529.1,1383.3z M-94,1397.6c-36.2-24-286.1-133.8-294.1-138.7c-13.9-8.5-36.9-12.6-116.8-46.9 c-288.4-123.5-404.9-160.7-405.2-189.3c-0.2-12.9,24.6-15.3,38.7-3.8c3.2,2.6,12.2,5.8,19.9,7.1c51.4,8.5,284.5,118.8,284.8,118.9 c17.9,7.5,23.8,16.3,13.8,20.6c-23.9,10.3,121.8,44.2,449.1,211.5c32.1,16.4,40.1,16.4,37.1,21.4 C-70.1,1404.1-84.9,1403.6-94,1397.6L-94,1397.6z M-606.5,1141.8c-24.8-16.3-105.2-47.9-105.1-41.4c0.1,6.3,185.5,90,142.1,58 C-569.5,1154.7-594,1150.1-606.5,1141.8z M333.6,1381.1c-41.4-29.8-106-58.8-120.6-72c-11-10-11.1-2.4-32-16.2 c-7.9-5.2-16.6-9.6-19.4-9.7c-7-0.3-51-30.9-53-36.8c-6.6-19.5,44.7,21.4,87.7,43.2c16.8,8.5,10.8,12.8,18.7,12.7 c10.6-0.1,146,70.4,146.2,84C361.4,1404,334.9,1381.1,333.6,1381.1z M1821.7,1371.6c-10.9-6.5,1.5-11.6,79.3-32.1 c42.3-11.2,80.5-22,84.7-24c22.5-10.8,157.5-37.4,193-55.7c18.4-9.5,89.1-17.6,99.4-11.4c4.8,2.9-3.8,17-10.3,17.1 c-8,0.1-118.9,40.1-130.5,40.5c-12.2,0.3-23.5,11.4-36.7,11.8c-9.6,0.3-91.5,33.2-95.2,36.3c-7.3,6.3-30.8,6.8-30.9,0.7 c0-3.6,22.1-13,65.5-27.8c68.4-23.4,78.4-32.3,16.5-14.6C1776.3,1391.9,1840.9,1371.4,1821.7,1371.6z M-14.7,1376.3 c-135.6-61.6-158.4-64.1-185.5-83.2c-9.5-6.7-66.4-28.7-105.6-40.9c-7.3-2.3-5.9-9.5,1.8-9.6c16.8-0.1,108.7,34.9,132,50.3 c8.2,5.4,16.3,9.8,18.1,9.8c7.8-0.1,121.2,54.8,158.5,67.8c16,5.6,23.2,14.9,13.8,17.8C16.2,1389,1.3,1383.6-14.7,1376.3z M1106.9,1198.3c36.3-45.1,44.8-53.2,50.2-48c7.3,7.2-19.3,40.2-109,135.2c-58.5,62-67.9,84.4-79.1,71.3 C951.5,1357,1056.7,1260.6,1106.9,1198.3z M858.2,1317.5c-3.8-6,14.9-15.6,69.8-124.8c13.5-26.8,26.3-60.5,34.9-52.1 c6.6,6.4-40.8,94.5-49.3,114.2C877,1338.9,856.1,1320.7,858.2,1317.5z M278.5,1311.9c6.8-7,4.8-11.2-3.3-6.7 c-21.6,11.9-21.2-5.4,0.6-25.5c40.7-37.5,60.2-48.8,60.4-35c0.1,7.1,14.9,11.4,21.5,13.8c-54.3,39.4-71.8,76.3-80.8,62.1 C277.3,1320.6,274.1,1316.4,278.5,1311.9z M314,1266.1c-5.6,0.1-31.4,23.3-31.4,28.2C282.7,1301.9,324,1265.9,314,1266.1z M489.1,1313.3c-8.5-10.4-11.2-22.8-23.5-35.6c-4.1-4.2-14.1-17.6-22.4-29.8c-19.6-28.8-17.8-28.4-47.5-11.9 c-27,15-39.3,14.5-29.7-1.4c3.8-6.2,3.1-7.7-4.1-9.6c-10.7-2.9,5.8-18.8,27-26.1c15.6-5.4,15.6-5-2.2-26.2 c-22.5-26.8-32.6-42.4-32.7-50.7c-0.1-11.8,8.8-9,17.5,5.4c29.9,49.6,37,57,52.2,54c25.7-5,26.8-10.1,7.1-35.5 c-29.6-38.3-50.2-69.3-50.3-75.9c-0.2-13.6,13.1-3.3,25,19.4c9,17.2,9.3,9,52.4,72.4c57.9,85.2,85,109.5,76.5,118.3 c-5.5,5.7-23.6-15.6-55.9-65.5c-9.2-14.2-12.3-14.8-32.4-6.2c-26.1,11.3-6.5,0.8,46.1,84.4C501,1306.7,503.8,1327.6,489.1,1313.3z M396.9,1212.5c-3.6-3.5-14.6,1.1-14.5,6.1C382.5,1228,400.9,1216.4,396.9,1212.5z M450.9,1189.9c17.5-14.9-26.2,3-26.1,7.2 C424.8,1200.6,444.8,1195.1,450.9,1189.9z M1004.3,1265.7c14.1-13.3,0.2-33.4-31-45c-9-3.3-7-11.8,3.4-14.6 c6.4-1.7,18-15.7,36.9-44.5c44.5-67.9,129-172.6,132.7-179.8c6.6-12.9,25.3-12.7,22.2,0.3c-12.4,51.9-226.2,253-142.1,252 c4.1,0,15.7-10.9,27.2-25.4c18.6-23.5,33.5-32.6,33.7-20.6c0.1,7.1-58.9,68.9-72.2,88.7c-19.1,28.6-42.4,46.1-42.5,32.1 C969.6,1310.4,987.5,1281.5,1004.3,1265.7z M1795.8,1294.8c-10.2-16,66.8-28.1,101.1-46.5c14.5-7.8,13.6-2.6,36.5-13.5 c34.5-16.3,89.6-25.5,72.2-36c-2.7-1.6-3.7-4.9-2.3-7.3c3.2-5.2,21.5-6.1,21.6-1c0.2,17.5,58.8-10.8,75.9-15c12-3,27-23,43.3-26.8 c16.5-3.8,17.1-13.9,28.1-14c14.9-0.2,142.1-58.3,152.6-45.4c13.3,16.5-24.9,19.8-55.1,35.5c-52.8,27.5-395.9,149.3-400.7,151.3 C1791,1307.9,1798.5,1294.8,1795.8,1294.8z M628.4,1300.1c-8.4-10-37.7-142.1-52.5-141.9c-5.4,0.1-4.6,15,2,39.7 c2.2,8.2,1.5,10.6-3.3,10.7c-8,0.1-11.2-20.3-17.1-39.5c-2.5-8.1-15.3-8.4-28.6-0.6c-12.2,7.2-27,7.7-27.1,1 c-0.1-7.6,18.3-11.4,25.9-22.5c7.4-10.8,22.6-5.4,25.1-12.6c4.3-12.3,31,24.8,16.4-16.4c-8.4-23.8-8.4-34,0.1-32.5 c4,0.7,7.8,6.4,9.4,14.1c4,18.3,11.4,18.3,11.6,28.3c0.1,4.3,2.9,6.9,7.5,6.9c18.8-0.2,28.3,13.4,11.2,16.1 c-14.1,2.2-11.7,15.2,17.9,97.9C643.4,1294.2,644.1,1318.8,628.4,1300.1L628.4,1300.1z M1584.7,1263.1c4-22.4,169-89.4,172.1-69.9 c0.7,4.8-0.6,8.7-3,8.8c-7.7,0.1-68.3,31.4-129.2,54c-10.6,3.9-20.9,8.7-22.9,10.5C1594.9,1272.6,1583.4,1270.4,1584.7,1263.1 L1584.7,1263.1z M793.6,1260.1c-0.1-6.3,8.8-18,24.5-64.1c13.6-40.1,17.7-38.3,14.5-46.1c-3.1-7.7,8.5-13.2,14.8-7 c2.4,2.4,8.5,4.3,13.5,4.2c20.8-0.3,48.4,22.3,13.5,17.2c-20.9-3-41-7-37.8-1.9c3.6,5.7-17,85.5-25,96.7 C807.5,1264.9,793.7,1265.7,793.6,1260.1L793.6,1260.1z M226.8,1222.8c-25.1-23.4-28.1-28.9-16.2-29.1c7.1-0.1,51.9,41.6,52,48.4 C262.8,1260.4,226.8,1221.1,226.8,1222.8z M760.9,1119.2c8.1-70.6,8.4-71.8,16.5-71.9c6.4-0.1,5.9,23.1-1.4,63.5 c-4.1,22.8-3.3,24,11.3,16.2c13-6.9,12.8-6.6,38.4-90c23.4-76.5,23.3-65.5,41.5-125.5c46.6-154.5,51.7-105.3,35.2-64.4 c-5.9,14.7-6.8,25.6-1.3,16.7c6.8-11.1,8-1.1,2.5,21.2c-7.4,30-19.1,40.4-17.5,50c2.1,12.5-7.3,30.5-14.9,28.6 c-4.3-1.1-7.5,0.9-8.6,5.3c-1.2,4.8-0.1,6.4,3.6,4.9c13.2-5.3-0.8,48-11.6,44c-11.2-4.1,5.7,20.7-7.9,20.9 c-17.2,0.2-35.5,129.1-59.7,105.5c-7.4-7.2-9.2-4.1-11.7,20.2c-3.2,31.6-7.1,27.5-8.2,47.7c-1.3,24.1-12.3,36-18.6,20.3 C744.7,1237.2,753.9,1179.8,760.9,1119.2z M857.8,1001.5c8.9-24.2-9.3-3.7-9.2,3.1C848.6,1010.1,855.5,1007.8,857.8,1001.5z M577.3,1233.2c-2.7-1-4.9-5.4-5-9.6c-0.1-10.8,13.1-7.8,14.8,3.4C588.5,1235.6,586.5,1236.8,577.3,1233.2z M868.5,1228 c-4.6-7.2,31.9-45.5,74.1-132.1c16.9-34.7,38.8-69.6,45.3-72.3c17.9-7.5,11.2,10.6-27.5,74.4c-14,23.1-3.8,15.2-24.4,47 C890.1,1215.7,878.4,1243.5,868.5,1228z M955,1188.5c8.1-0.1,17.4,8.8,13.5,12.8C960.8,1209.2,936.1,1188.7,955,1188.5z M1184,1188.4c-0.1-6.1,23.4-30.1,29.6-30.2C1238.4,1157.9,1184.3,1211.1,1184,1188.4z M1832.4,1158.1c-5.9-9.3,11.7-8.5,73.3-37.7 c28.3-13.4,63.8-27.3,96.4-45.2c31.2-17.2,19.3-6.1,69.2-26.8c69.6-28.9,84-37.4,93.8-37.5c17.7-0.2,82.1-54.2,72.8-15.1 c-4.1,17.3-75.6,46.8-189.2,97.8c-63.8,28.7-66.7,29.6-76.4,24.6c-7.1-3.7-12.8-2.6-33.6,6.2 C1870.6,1153.6,1836.4,1164.4,1832.4,1158.1L1832.4,1158.1z M-24.8,1166.7c-13.1-5-47-31.5-61.8-31.3 c-21.7,0.3-367.6-224.1-373.2-224.1c-8.3-0.1-30.9-21.5-28-26.4c15.1-25.1,445.7,261.6,453.3,261.5c4.4-0.1,24.9,15.8,24.9,19.3 C-9.5,1172.9-26.3,1166-24.8,1166.7z M151,1149.4c6.8-2.7,22.5,9,19.3,14.4C163,1175.9,137.2,1154.9,151,1149.4z M222.2,1096.9 c-36.9-47.1-233.7-237.5-245.3-237.4c-2.8,0-5.7-1.8-6.5-4.1c-2-5.8-129.8-130-131.7-128c-9.2,9.5,116,125.3,229.1,255 c38.9,44.6,49.9,55.8,57.5,58.4c8.8,3,0.2,7.8-9.7,5.4C92.1,1040.6,13,936.1-81.4,843c-24.1-23.8-70.5-83.4-90.9-79.1 c-18.9,4-31.6-29.6-118.9-123.2c-45-48.3-71.6-90.4-124.5-145.5c-25.6-26.7-17.1-35.1-40.7-60.5c-22.5-24.2-35.1-46-39.4-45.9 c-3.9,0-18.8-34.6-3.6-34.8c6-0.1,147.7,141.5,177.6,177.3c92.9,111.5,417.1,414.1,574.4,576.4c30.5,31.4,48.6,72.3,23.7,53.4 C275.5,1161.1,260.6,1146,222.2,1096.9z M-291,605.9c-35.7-41.5-47.7-53.8-50.1-51.3c-3.3,3.4,5.9,17.3,25.5,38.8 c47.9,52.5,126,148,136.6,147.9c3.6,0,4.7-1.9,2.8-4.9C-173.5,734.4-286.7,610.9-291,605.9z M56.3,1122c-5.9,0.1-24.1-23-24.2-30.6 c-0.2-14.8-10.1,1.1-20-8.8c-5.7-5.7-181.3-190.1-194-190c-13.8,0,8.8-15.8-149.8-153.3c-20.4-17.6-24.4-23.1-24.5-33.6 c-0.3-20.7,6.2-16,86.4,62.9c95.7,94.2,382.4,364.4,358.8,373.8C81,1145.5,60.7,1121.9,56.3,1122z M659,1135.3 c-7.7-7.6-2.8-28.4,6.8-28.5c11.2-0.1,12,3.6,4,19.5C663.6,1138.7,663,1139.2,659,1135.3L659,1135.3z M717.3,1117.1 c11.5-1.5,16.8-16,8.8-23.9c-15.6-15.2-4.2-139,13.1-141.7l9.1-1.4c-4.9,168.1-10.2,166.3-1.3,169.6c7.4,2.7,8.6,13.1,1.6,13.2 c-2.7,0.1-8.3,1-12.6,2C725.1,1137.7,689.7,1120.6,717.3,1117.1z M1567.5,1085.4c1.7-2.8,5-5.2,7.4-5.2c6.6-0.1,84.2-40,97.3-50.1 c18.4-14.2,23.3-12.5,38.3-22.3c5.3-3.5,49-31.9,62.3-38.1c11.8-5.5,7.8-9.2,27.5-20.1c43.8-24.2,300.2-182,318-191.6 c37.6-20.2,85.8-58.5,89.9-31.7c2.8,18.1-264.6,190.6-285.7,190.9c-3.1,0-5.7-2.7-5.8-6.2c-0.3-22.8-178.3,108.2-332.8,188.1 c-19.1,9.9-35.2,19.3-35.9,21c-2.7,6.7-20.6,3.5-19.3-3.4C1524,1112.1,1563.4,1092.3,1567.5,1085.4z M1736.9,1096.3 c-0.2-14.6,111.8-66.5,173.1-102.2c42-24.4,78.9-30.8,59-10.1c-1.6,1.6-2.8,6.5-2.8,10.7c0.2,15.2-47.2,31.9-117.3,74.6 c-43.7,26.6-52.6,31.3-59.3,31.4c-11.7,0.1-6.2-7.1,13.9-18.6c146.8-83.9,54.6-45,40.1-33.3C1828,1061.5,1754.7,1102,1736.9,1096.3 z M1910.3,1018c13.9-11.2,0.1-9.3-11.6,0.1C1884.8,1029.3,1898.6,1027.4,1910.3,1018z M1292.4,1085c-1.8-4.5,5.2-13.9,24-32.3 c179.9-175.8,165-161.7,206.9-196c121.5-99.3,116.3-110.6,123.9-110.7c5-0.1,76.2-73.9,86-89.2c13.3-20.7,40.5-25.6,40.7-7.3 c0.2,17.6-15.5,2.7-15.3,18c0.2,19.2-35.1,51.7-108.3,132.7c-60.1,66.4-63.9,70.1-69.6,68c-7.2-2.7-7.2-6.8,0-13 c9.2-7.8,28-60.3-165,133.9C1275.3,1130.7,1289.9,1075.3,1292.4,1085z M1640.5,782.7c-37.5,31.5-49.9,45.5-40.2,45.4 C1611.5,827.9,1716.4,719,1640.5,782.7z M244.5,1027.8c-0.3-24.3,37.1,42.9,48.8,52.4c11.6,9.4,5.4,23.7-6.4,14.7 C283.6,1094.9,244.6,1035.1,244.5,1027.8z M911.5,1078.5c-0.1-7.5,147.2-307.3,142.3-312c-1-1-12.5,19.8-25.5,46.1 c-27.2,55.1-25.5,52.4-30.4,47.6c-7.8-7.6,49-114.5,60.9-114.6c9.2-0.1,13.1-6.9,7.6-13.3c-7.6-9,22.4-47.2,22.3-58.6 c-0.1-7.4,11.5-12.8,11.4-18.2c0-1.7,31.3-81.2,38.4-81.3c6.4-0.1-3.4-7.8,14.5-27.9c15-16.8,9.1-18.9,19.1-19 c13.2-0.2,7.8,1.9-62.4,157c-19.3,42.5-28.3,36.9-25.4,44.3c2.7,6.8-6.4,23.4-23.1,60.7C902.8,1144.1,911.2,1079,911.5,1078.5z M1089.4,891.9c-5.5-1.3-18.8-0.3-8.4-15.5c9.2-13.4,2.6-20.4,13.1-32.2c17.1-19.3,33.6-64.5,39.4-64.6 c10.2-0.2,169.8-312.2,188.7-329.7c10.2-9.5,4.1-13,19.2-39c17.9-30.8,16.1-34.4,35.1-65.3c20.9-33.9,35-72.3,47.2-78.2 c4.8-2.3,9.6-8.7,10.7-14.2c6.5-33.4,31.2-64.5,40.2-50.6c5.1,7.8,4.5,33-0.9,38.9c-17.5,18.9-44.7,65.4-44.6,76.2 c0,2.6-2.4,6.1-5.4,7.8c-5.4,3.2-17.6,25.1-52.4,94.8c-27.5,55-29.4,46.9-29.4,52.7c0.1,10.5-75.3,156.6-75.5,157 c-13.1,25.9-25.1,37-29.2,26.8c-1.2-3.1,4.9-16.7,13.8-30.4c21.2-32.7,14.7-28.3,35.2-74.3c49-109.6-77.5,120.1-77.3,135.6 c0.1,9.5-22.9,30.5-22.7,41c0.1,6.6-10.5,29.7-18.8,40.9c-4.6,6.3-1.5,15.6-24.9,55.1c-9.3,15.7-16.8,29.7-16.8,31 c0.1,10.7-46.1,90.8-46.3,91.2c-68.8,126.5-86.3,153.2-86.6,131.2C982.4,1086.5,1096.8,893.6,1089.4,891.9z M1313.8,500.1 c3.5-9.4-1.6-11.1-6.3-2c-2.9,5.6-3,8.1-0.1,8.1C1311.1,506.1,1314.1,500,1313.8,500.1z M636,917.3c-10.5-67.5-11.5-82.3-5.9-80.4 c5.8,1.9,18.8,58.4,19.5,84.9c0.3,10,2.2,26.6,4.4,36.8c7.6,36.2,10,111.9,3.8,117.2C642.8,1088.6,655.7,1044.4,636,917.3z M478,1061.6c-9.9-31.6-50.7-170.3-55.8-154.5c-0.8,2.5,0.5,8.3,3,12.8c10.3,18.6,18.5,57.8,12.2,57.9 c-9.2,0.1-14.8-40.3-41.5-113.8c-22.4-61.6-24-77.4-30.5-92.6C352.9,742,321.2,648.7,321.1,641c-0.1-5.2-2.6-11.5-5.7-14 c-8-6.5-8.4-23.7-16.7-39.5c-4.8-9-4.6-11.2,0.9-16.8c15.5-15.9-27.1-63.6-18.5-80.2c5.1-9.8,12.1-6.6,15.5,7 c0.6,2.3,95.2,251.9,95.4,252.3c25.7,69.3,51.4,103.6,21.8,104.3c-5.5,0.1-6.8-13.8-1.5-17.1c1.9-1.2-0.6-10.4-5.6-20.5 c-18.5-37.3-90.7-248.7-97-242.3c-4,4.1,35.5,102.4,44.8,129.6c49.4,144.1,60,191.3,66.9,186.9c7.5-4.7-16.6-25.4,5.1-29.9 c11.1-2.3,14.8,4.3,46.7,81.7c21.7,52.6,22.2,54.4,16,56.8c-4.2,1.6-19.8-26.1-30.7-54.7c-2.3-6.1-13.8-19.5,14.2,60.3 c11.3,32.2,19.7,60.9,18.6,63.8C485.7,1084.1,477.3,1061.3,478,1061.6z M442.7,899.8c-11.1-23.7-13.7-14.1-3,11.1 C448.6,932,461,939,442.7,899.8z M54.9,731.3c-24.2-30.2-38.8-40.8-18.7-13.6c0.3,0.4,203.3,277.5,198.2,285.9 c-3.2,5.3-17.4-2.6-17.5-9.7c0-3.1-1.5-5.7-3.3-5.6c-1.9,0-67-97.1-72.3-99.2c-6-2.4,5.2,1.5-19.8-31 c-78.1-101.8-53.5-75.2-96.9-130.8C-7,686.8-7,686.9,6,674.6c10.1-9.6,11-9.8,15.8-3.3c7.9,10.5,24.9,27.6,25,30.9 c0,3.4,23.5,22.7,23.6,26.3c0.1,7.9,149.7,182.2,219.2,272.6c13,16.9,26.5,33.1,30.1,35.9c7.7,6.2,8.6,15.9,1.5,15.9 C312.2,1053,308.5,1047.9,54.9,731.3z M870.3,1034.6c-8.2-12.9,24.6-17.7,18.7-1.8C886.6,1039.1,873.9,1040.3,870.3,1034.6z M598.6,967.2c5.8-173.9-9.2-170.9-8.9-223.6c0.4-48.5-16.9-260-5.1-268.8c13.3-10-16.5-58.2-4.8-68.1c9.4-8-8.9-17.4-4.6-39.9 c6.5-33.8,6-64.6-1.2-84.1c-7.6-20.3-4.6-29.2,8.3-24.5c23.8,8.8,26.6,214.2,52.7,444.2c3.7,32.5,2.6,41-4.9,38.2 c-9.3-3.4-2.3-28.4-11.3-28.3c-7.5,0.1-9,6.4-7.3,31.1c2.3,33.9,6.8,173,9.8,206.9c3.5,40.1-8.1,17.4-11.8,58.1 C604.6,1063.5,596.4,1033,598.6,967.2L598.6,967.2z M618.2,649.2c-4.6-74.8-6.6-84.8-15.6-79c-8.1,5.2-10,43.4-2.9,56 c2.1,3.7,5.1,21.9,6.7,40.5C611.7,729.3,622.2,713.7,618.2,649.2z M400.1,1004.5C393.9,997,238.8,706,218.9,689.9 c-8-6.5-2.5-13.2-15.2-26.6C167.9,625.7,74.4,424.9,74.7,451c0,4.1,17.2,36.8,23.2,44.3c1.9,2.3,4.7,9.5,6.3,15.8 c6.1,24.2,41.9,84.7,42.1,94.4c0.1,8.1,40.3,95.5,61,132.9c3.8,6.8,5,12.9,2.9,15c-13,13.3-21.3-26.2-45.7-74.4 C25.4,403.4-23.7,322-23.8,313.1c-0.1-6.4-37.2-78.6-50.7-98.7c-22.3-33.1-11-47.5,17.3-22c22.9,20.6,38.9,61.3,97,159.4 c41.6,70.3,39,60.4,64.7,107c9.9,18-0.7,20.8,18.3,37.3c9.4,8.1,297.9,501.7,289.1,510.7C405.8,1013,400.5,1004.5,400.1,1004.5z M1495.3,981c-0.1-9.4,61.3-55,61.6-32.7c0.1,10.5-2.6,3.5-26.4,24C1495.8,1002.3,1494.5,980.2,1495.3,981z M929.6,978.2 c-0.1-7.4,6.7-9,36.1-66.2c42.6-83,37.5-30.3-14.2,52.8C940.4,982.7,929.8,989.2,929.6,978.2z M1728.3,896.2 c4.5-0.1,98.3-72.4,98.5-52c0,4-25.6,27.8-30.1,27.9c-5.5,0.1-8.3,9.1-35.2,23.1c-33.4,17.4-57.7,37.1-57.8,22.9 C1700,918.1,1721.1,896.3,1728.3,896.2z M1626.3,916.7c-0.1-6.3,0.2,4.5,68.6-57.8c17.5-16,10.2-16.8-9.2-1 c-20.5,16.7-20.8,8.5-30.8,19.7c-7.7,8.7-21.2,10.7-21.3,3.2c-0.1-6.8,37.5-35.8,65.1-50.1c12.8-6.7,34.4-21.8,48-33.6 c33.1-28.8,32.8-20.3,32.7-25.5c-0.1-7.1,8.1,2.6,25.3-16.8c22.4-25.2,154.1-138,166-135.8c12.6,2.3,6.5,16.1-14.6,33 c-36.9,29.6-72.5,58.8-93,73.8c-32.8,23.9-66.2,67.3-107.2,95.9C1719.5,847.1,1626.6,948,1626.3,916.7L1626.3,916.7z M-306.1,882.3 c5.3-0.1,18.2,11.7,18.2,16.7c0.1,5.2,41.3,33,18.3,33.3C-275.9,932.3-327.2,882.6-306.1,882.3z M-329.6,904.8 c-20.5-20.3-24-25.7-16.5-25.8c4.7-0.1,46.8,38.4,46.8,42.9C-299.1,936.1-329.2,904.7-329.6,904.8z M853.8,612.5 c6.9-46.1,12-63,14.5-97c2.8-37.6,3.8-18,8.6-53.5c5.8-42.8,10.7-48.6,1.8-45.1c-7,2.8-7.8-1.6-4.1-21.4c1.8-9.5,4-12,9.3-10.7 c16.1,4,11.9-71.1,34-71.4c18.6-0.2-5.5,23.4-29.3,172.8c-65.1,407.6-57.9,307.2-57.7,336.7c0.1,14.3-7.5,24.4-17.1,58.5 c-6.5,23-24.7,35.9-19.6,13.8C793.2,895.6,831.9,757.9,853.8,612.5z M540.3,881.1c-26.5-28.6-40.9-115.5-81.3-234.4 c-6-17.7-6-0.5,0,23.4c9.6,38.3,13.1,57.1,19.4,81.6c7.9,30.7-7.3,25.5-13.1-5.5c-11.8-63.4-20.2-64.1-62.8-256.1 c-22.9-103.3-44.4-143.7-54.7-206.6c-0.1-0.4-38-155.3-40.4-158.3c-5.7-7.2-8.5-39.2-3.8-44c13.6-14,27.2-3.1,32.3,26 c2.7,15.4,139.5,469.7,141.3,474.6c10.8,28.4-3.3,55.5-39.7-86.3c-10.8-42.2-9.3-19.4-19.9-63.7c-12.3-51-21.5-58.9-34.2-112.4 c-6-25.5-11.9-38.9-15.8-36.4c-5,3.2,75.7,294.6,84.8,310.6c14,24.8,82,255.7,92.9,275.4C551.9,881,548.3,889.8,540.3,881.1 L540.3,881.1z M-290.1,877.5c-18.3-10-53.4-46.9-61.5-44.1c-2.3,0.8,4.9,9.1,16,18.4c22.4,18.8,24.4,22.8,11.6,22.8 c-14.3,0.1-106.1-95.5-112.9-95.4c-7.4,0.1-2.8,7.3,15.1,23.8c34.9,31.9,68.9,68.2,66.4,70.8c-3.5,3.6-27.1-16.7-191.9-173.5 c-72.4-68.9-77.8-75.5-68.8-84.7c13.4-13.7,25.7-5.5,102.4,68.6c97.9,94.6,54.9,44.4,79,69.7c5,5.2,11.4,8.6,14.2,7.5 c5.5-2.2,31.3,21.3,30,27.3c-1.2,5.3,8.5,22.3,8.6,30.8c0.1,7.2,5.6,7,11.6-0.4c2.6-3.2,7.2-5.9,10.3-5.9 c8.2-0.1,79.4,56.3,79.5,63C-280.3,883-280.1,883-290.1,877.5L-290.1,877.5z M-456.2,762.1c0-1.9-3.7-5.5-26.8-26.5 c-18.1-16.4-15-6,3.7,12.7C-465,762.4-456.1,767.8-456.2,762.1z M1286.8,848c-2.8-4.4,7.6-12.1,18.8-30.6 c28.5-47.5,89.1-122.4,77.1-122.2c-2.8,0-8.1,4.9-11.7,10.8c-28.2,45.2-80.1,113.9-86.2,114.2c-12.6,0.5,0.8-27.9,31.5-66.7 c2.8-3.6,11.5-16.7,19.2-29.3c21.3-34.4,41.3-53.6,55.1-77.6c11.6-20.2,28.5-41.7,48.4-69.5c58.5-81.5,47.6-32.8,92.3-116.2 c9.2-17.1,34.7-41.2,34.7-44.9c-0.1-7.1,101.1-149.9,104.1-155.5c13.5-25.7,23.9-37.4,37.2-41.5c72.1-22.6-4.1,40.3-95.2,164.7 c-7.3,10-16.4,19.3-20.1,20.6c-2.3,0.8-272.9,421.5-273,421.9C1318.6,842,1285.1,856.9,1286.8,848z M1849.9,825.8 c-0.1-5.5,8.9-12.5,16.1-12.6c10.3-0.1,8.5,7.3-2.8,11.8C1851.2,829.7,1849.9,829.7,1849.9,825.8z M916.4,814.4 c5.2-21.1,11.3-32.3,17.5-32.4c5.6-0.1,5.4,1.6-4.4,31C922.9,833,911.6,834.2,916.4,814.4z M983.6,782.3 c5.8-14.5,17-23.1,17.1-13.2c0.1,7.7-22.5,54.9-26.3,54.9C965.8,824.2,972.2,810.7,983.6,782.3z M839.1,522.5 c9.4-45.7,23.4-28.3,15.8-7.8c-12.7,33.9-35.2,170.5-37,171.8c-1.5,1.1-8.3,22.1-15.1,46.7c-17.6,63.6-33.9,93.8-34.2,63.4 C768.6,797,795.5,735.2,839.1,522.5z M909.7,783.2c3-13,7.6-18.3,13-15c5.9,3.5-2.4,25.6-9.6,25.7 C908.6,793.9,907.8,791.3,909.7,783.2z M1419,761.5c-0.1-12,163-203.2,192.7-245.5c18.5-26.4,33.1-35.8,37.6-24.2 c6.7,16.7-99.2,135.2-108.9,163.6c-2.6,7.6-12.7,9.3-15.1,2.6C1520.2,642.9,1419.4,799.2,1419,761.5L1419,761.5z M718.1,769.3 c-8.5-5.1-0.3-39.2,3.9-133.9c5.3-117.8,12.9-201.5,8.1-184.4c-8.7,31-14.5,8.7-9-34.5c3.1-24,9.6-125.9,10.3-162.8 c0.9-44.2,13.7-17.7,14.9-127c0.8-74.4,5.8-92.3,9.7-113.5l28-0.3c-5.1,325.2-7.8,163.1-13,356.6c-3.2,120.3-5.5,155.5-10.5,161.8 c-7.3,9.2,0.5,80.5-9.7,80.6c-8.7,0.1-11.5-72.6-3.3-85.4c11-17.2,2.5-58.6-1.3-77.2c-8.3,40.1-3.4,57.4-18.7,303.5 C726.5,771.9,725.4,773.6,718.1,769.3L718.1,769.3z M755.1,381.2c-0.5-17.4,0.7-18.1-3.2-1.9c-3.3,13.6-2.6,34-2.4,46.5 C756,391.9,755.4,381.2,755.1,381.2z M947.7,671.4c11-36.3,13.4-41.8,19.6-43.9c9.6-3.3,1.2,28.2-32.6,122.5 c-4.5,12.5-9.1,15.8-13.1,9.5C918.4,756.4,934,716.6,947.7,671.4z M1459.9,752.7c-5.2-8.2,29.6-39.1,22.6-15.3 C1477.7,753.7,1465.7,761.9,1459.9,752.7z M998.9,746.9c-3-4.7,7.6-14,10.7-9.1C1012.6,742.5,1002,751.8,998.9,746.9z M753,727 c2.4,12,0.1,18.4-6.9,18.5C733.4,745.7,747.7,701.4,753,727z M1507.2,685.2c-0.1-6.9,7.5-15,14.2-15c7.9-0.1,6,11.8-3.1,20 c-4.6,4.1-10.1,11.2-12.4,15.8c-4.8,9.8-11.9,13.2-15.6,7.5C1484.6,710.7,1507.3,692.8,1507.2,685.2z M1012.6,712.4 c-16.1-5.7,13.8-60.1,13.7-67.7c-0.1-9.6,38.6-90.3,44.1-92.1c8.8-2.8,2.9,31.5-10.5,61.2c-19.3,42.6-16.6,46.1-25.5,56.5 C1021.5,685.4,1028.4,718,1012.6,712.4L1012.6,712.4z M1591.1,686.7c-4.4-11,49.7-72.3,63.8-72.5c10.2-0.1,7.6,10.7-5.9,24.8 C1602.4,688.1,1596.4,700.1,1591.1,686.7L1591.1,686.7z M900.5,635.6c-4-6.3,25.4-51.6,45.2-117.2c2.5-8.4,48-133.5,53.7-158.5 c20.9-91.5,61.7-184.8,78.3-238.3c11.3-36.6,15.3-45,21.9-46c23-3.7,15.4,69.8-13.3,128.1c-6.3,12.8-79.4,341.1-94.4,341.3 c-3.1,0-5.7-1.3-5.7-3.1c-0.2-12.7,80.8-312.4,82.6-325c4.9-35.6-14,10.7-28.5,69.8c-8.2,33.5-39.2,125.7-45.2,134.5 c-3.5,5.1-6.3,14.6-6.2,21.2c0.2,12.9-59.2,159.5-74.5,187.8C905.9,645.9,900.9,635.3,900.5,635.6z M1989.6,469.5 c10.3,9.1,9.6,10.5-18.7,33.7c-62.7,51.4-127.3,128.3-127.7,95.8C1831.9,588,1975.5,457,1989.6,469.5z M1085.9,529.2 c-21.7-4.6,38.6-87.8,38.4-107.6c-0.1-7.3,9.8-25.4,15.1-37.4c6.4-14.4,27.9-7.4,10.5,29.6c-25.4,54-33.6,88.9-44.2,89 c-3.8,0.1-5.2,3.4-4.4,10.1C1103.7,530.8,1085.9,530.8,1085.9,529.2z M1657.6,470.9c-2.5-7.5,28.3-54.6,35.8-54.7 c10.3-0.1,17,15.2,10.9,24.8C1668.9,496.4,1655.9,472.7,1657.6,470.9z"/> </g> </svg>